<svg width="26" height="27" viewBox="0 0 26 27" fill="none" xmlns="http://www.w3.org/2000/svg">
<path d="M18.3333 8.66644V4.00064C18.3333 2.89166 18.3333 2.33717 18.0997 1.9964C17.8956 1.69868 17.5795 1.49643 17.2237 1.43588C16.8164 1.36657 16.3129 1.59893 15.306 2.06366L3.47869 7.52243C2.58067 7.93689 2.13167 8.14413 1.80281 8.46553C1.51208 8.74966 1.29016 9.0965 1.15401 9.47954C1 9.91282 1 10.4073 1 11.3964V17.9998M19 17.3331H19.0133M1 12.9331L1 21.7331C1 23.2266 1 23.9733 1.29065 24.5437C1.54631 25.0455 1.95426 25.4535 2.45603 25.7091C3.02646 25.9998 3.77319 25.9998 5.26667 25.9998H20.7333C22.2268 25.9998 22.9735 25.9998 23.544 25.7091C24.0457 25.4535 24.4537 25.0455 24.7094 24.5437C25 23.9733 25 23.2266 25 21.7331V12.9331C25 11.4396 25 10.6929 24.7094 10.1225C24.4537 9.6207 24.0457 9.21275 23.544 8.95709C22.9735 8.66644 22.2268 8.66644 20.7333 8.66644L5.26667 8.66644C3.77319 8.66644 3.02646 8.66644 2.45603 8.95709C1.95426 9.21275 1.54631 9.6207 1.29065 10.1225C1 10.6929 1 11.4396 1 12.9331ZM19.6667 17.3331C19.6667 17.7013 19.3682 17.9998 19 17.9998C18.6318 17.9998 18.3333 17.7013 18.3333 17.3331C18.3333 16.9649 18.6318 16.6664 19 16.6664C19.3682 16.6664 19.6667 16.9649 19.6667 17.3331Z" stroke="#56B258" stroke-width="2" stroke-linecap="round" stroke-linejoin="round"/>
</svg>
