<svg width="26" height="30" viewBox="0 0 26 30" fill="none" xmlns="http://www.w3.org/2000/svg">
<path d="M24.3333 8.70345L13 14.9997M13 14.9997L1.66662 8.70345M13 14.9997L13 27.6665M25 20.4112V9.58838C25 9.13152 25 8.9031 24.9327 8.69936C24.8731 8.51913 24.7758 8.35369 24.6472 8.2141C24.5018 8.05632 24.3021 7.94538 23.9027 7.72351L14.036 2.24203C13.6579 2.03195 13.4688 1.92691 13.2686 1.88573C13.0914 1.84929 12.9086 1.84929 12.7314 1.88573C12.5312 1.92691 12.3421 2.03195 11.964 2.24203L2.09729 7.72351C1.69793 7.94538 1.49825 8.05632 1.35284 8.2141C1.22421 8.35369 1.12686 8.51913 1.06731 8.69937C1 8.9031 1 9.13153 1 9.58838V20.4112C1 20.8681 1 21.0965 1.06731 21.3002C1.12686 21.4804 1.22421 21.6459 1.35284 21.7855C1.49825 21.9433 1.69793 22.0542 2.0973 22.2761L11.964 27.7575C12.3421 27.9676 12.5312 28.0727 12.7314 28.1138C12.9086 28.1503 13.0914 28.1503 13.2686 28.1138C13.4688 28.0727 13.6579 27.9676 14.036 27.7575L23.9027 22.2761C24.3021 22.0542 24.5018 21.9433 24.6472 21.7855C24.7758 21.6459 24.8731 21.4804 24.9327 21.3002C25 21.0965 25 20.8681 25 20.4112Z" stroke="#56B258" stroke-width="2" stroke-linecap="round" stroke-linejoin="round"/>
<path d="M19 11.6667L7 5" stroke="#56B258" stroke-width="2" stroke-linecap="round" stroke-linejoin="round"/>
</svg>
