<svg width="20" height="20" viewBox="0 0 20 20" fill="none" xmlns="http://www.w3.org/2000/svg">
<path d="M17.4332 2.10575C19.9942 4.41161 20.0719 8.36016 17.6664 10.7657C16.8933 11.5388 15.9609 12.055 14.9748 12.3147C13.6735 12.6574 12.6574 13.6735 12.3147 14.9748C12.055 15.9609 11.5389 16.8932 10.7658 17.6663C8.36015 20.072 4.41163 19.9942 2.10573 17.4331C0.00237456 15.097 0.0943274 11.4815 2.30655 9.24813C3.09042 8.45676 4.04026 7.93149 5.04468 7.67184C6.32792 7.34008 7.34011 6.3279 7.67183 5.04465C7.93151 4.04024 8.45679 3.09044 9.24815 2.30653C11.4815 0.0943424 15.097 0.00238991 17.4332 2.10575Z" stroke="black" stroke-width="1.3" stroke-miterlimit="10"/>
<path d="M7.37598 15.9351L9.03457 14.2765" stroke="black" stroke-width="1.3" stroke-miterlimit="10"/>
<path d="M14.6914 8.61963L15.5207 7.79033" stroke="black" stroke-width="1.3" stroke-miterlimit="10"/>
<path d="M3.68652 12.9893L4.51582 12.16" stroke="black" stroke-width="1.3" stroke-miterlimit="10"/>
<path d="M5.3457 11.3306L6.175 10.5013" stroke="black" stroke-width="1.3" stroke-miterlimit="10"/>
</svg>
