<svg width="20" height="20" viewBox="0 0 20 20" fill="none" xmlns="http://www.w3.org/2000/svg">
<path d="M14.0179 5.98214C16.2294 8.19366 16.2294 11.7792 14.0179 13.9908C11.8063 16.2023 8.22075 16.2023 6.00923 13.9908C3.79771 11.7792 3.79771 8.19366 6.00923 5.98214C8.22075 3.77062 11.8063 3.77062 14.0179 5.98214Z" stroke="#141414" stroke-width="1.3" stroke-miterlimit="10" stroke-linecap="round" stroke-linejoin="round"/>
<path d="M11.6327 15.4136C12.5058 15.154 13.3286 14.6796 14.0179 13.9903C14.7071 13.301 15.1815 12.4782 15.4411 11.6052L8.39434 4.55842C7.52129 4.81803 6.69852 5.2924 6.00922 5.98166C5.31992 6.67096 4.84559 7.49373 4.58594 8.36678L11.6327 15.4136Z" stroke="#141414" stroke-width="1.3" stroke-miterlimit="10" stroke-linecap="round" stroke-linejoin="round"/>
<path d="M5.98164 14.0184C4.51484 12.5516 2.13672 12.5516 0.669922 14.0184L2.75937 14.8468L3.15539 16.8446L5.15316 17.2406L5.98164 19.3301C7.44844 17.8633 7.44844 15.4852 5.98164 14.0184Z" stroke="#141414" stroke-width="1.3" stroke-miterlimit="10" stroke-linecap="round" stroke-linejoin="round"/>
<path d="M17.2482 5.15607L16.8522 3.14779L14.8439 2.75182L14.018 0.670215C12.5513 2.13701 12.5513 4.51514 14.018 5.98193C15.4848 7.44873 17.863 7.44873 19.3298 5.98193L17.2482 5.15607Z" stroke="#141414" stroke-width="1.3" stroke-miterlimit="10" stroke-linecap="round" stroke-linejoin="round"/>
</svg>
