<svg width="20" height="17" viewBox="0 0 20 17" fill="none" xmlns="http://www.w3.org/2000/svg">
<path d="M10.0005 4.5555C11.2278 4.5555 12.2228 3.80931 12.2228 2.88883C12.2228 1.96836 11.2278 1.22217 10.0005 1.22217C8.77324 1.22217 7.77832 1.96836 7.77832 2.88883C7.77832 3.80931 8.77324 4.5555 10.0005 4.5555Z" stroke="#141414" stroke-width="1.3" stroke-miterlimit="10" stroke-linecap="round" stroke-linejoin="round"/>
<path d="M4.44434 7.88867L15.5554 7.88867" stroke="#141414" stroke-width="1.3" stroke-miterlimit="10" stroke-linecap="round" stroke-linejoin="round"/>
<path d="M13.8965 5.82447C14.4421 5.35871 15.1362 5.08905 15.8853 5.11057C17.588 5.15871 18.932 6.68944 18.8875 8.52975C18.848 10.1701 17.718 11.5031 16.2673 11.7391" stroke="#141414" stroke-width="1.3" stroke-miterlimit="10" stroke-linecap="round" stroke-linejoin="round"/>
<path d="M4.05083 12.9264L4.61622 13.8898C5.43752 15.2108 6.82725 16.0767 8.39805 16.1052C8.42444 16.1056 11.6266 16.1059 11.6266 16.1059C14.1211 16.1059 16.1962 13.9752 16.2641 11.2797C16.2654 11.2288 16.2661 11.1777 16.2663 11.1264C16.2827 7.43881 13.5106 4.40323 10.0994 4.37568C7.38678 4.35376 5.0731 6.21055 4.20452 8.81404L3.53732 7.59114C3.46911 7.46609 3.34478 7.38934 3.21049 7.38934H1.49139C1.19222 7.38934 1.01072 7.74613 1.17097 8.01924L2.31189 9.96331" stroke="#141414" stroke-width="1.3" stroke-miterlimit="10" stroke-linecap="round" stroke-linejoin="round"/>
</svg>
