<svg width="10" height="20" viewBox="0 0 10 20" fill="none" xmlns="http://www.w3.org/2000/svg">
<path d="M6.5625 1.95312H3.4375C3.00586 1.95312 2.65625 1.60352 2.65625 1.17188C2.65625 0.95625 2.74375 0.760938 2.88516 0.619531C3.02656 0.478125 3.22188 0.390625 3.4375 0.390625H6.5625C6.99414 0.390625 7.34375 0.740234 7.34375 1.17188C7.34375 1.3875 7.25625 1.58281 7.11484 1.72422C6.97344 1.86562 6.77812 1.95312 6.5625 1.95312Z" stroke="#141414" stroke-width="1.3" stroke-miterlimit="10" stroke-linecap="round" stroke-linejoin="round"/>
<path d="M3.4375 1.95312V2.08711C3.4375 2.50156 3.27305 2.89883 2.97969 3.19219L1.78008 4.3918C1.34062 4.83125 1.09375 5.42734 1.09375 6.04883V10C1.09375 10.8629 1.79336 11.5625 2.65625 11.5625H7.34375C7.49219 11.5625 7.63555 11.5418 7.77148 11.5031C8.42656 11.3172 8.90625 10.7145 8.90625 10V6.04883C8.90625 5.42734 8.65937 4.83125 8.21992 4.3918L7.02031 3.19219C6.72695 2.89883 6.5625 2.50156 6.5625 2.08711V1.95312" stroke="#141414" stroke-width="1.3" stroke-miterlimit="10" stroke-linecap="round" stroke-linejoin="round"/>
<path d="M1.875 16.25C1.44336 16.25 1.09375 16.5996 1.09375 17.0313V18.0469C1.09375 18.9098 1.79336 19.6094 2.65625 19.6094H7.34375C8.20664 19.6094 8.90625 18.9098 8.90625 18.0469V17.0313C8.90625 16.5996 8.55664 16.25 8.125 16.25" stroke="#141414" stroke-width="1.3" stroke-miterlimit="10" stroke-linecap="round" stroke-linejoin="round"/>
<path d="M7.73438 11.5625C7.74648 11.5625 7.7582 11.5625 7.76992 11.5633C8.40078 11.582 8.90625 12.0992 8.90625 12.7344C8.90625 13.3816 8.38164 13.9062 7.73438 13.9062H2" stroke="#141414" stroke-width="1.3" stroke-miterlimit="10" stroke-linecap="round" stroke-linejoin="round"/>
<path d="M1.875 13.9062H2.26562C1.61836 13.9062 1.09375 13.3816 1.09375 12.7344C1.09375 12.0871 1.61836 11.5625 2.26562 11.5625H2.65625" stroke="#141414" stroke-width="1.3" stroke-miterlimit="10" stroke-linecap="round" stroke-linejoin="round"/>
<path d="M7.73437 13.9062C8.38164 13.9062 8.90625 14.4309 8.90625 15.0781C8.90625 15.4016 8.775 15.6945 8.56289 15.9066C8.43555 16.034 8.2793 16.132 8.10469 16.1898C7.98828 16.2289 7.86367 16.25 7.73437 16.25H2.26562C2.13633 16.25 2.01172 16.2289 1.89531 16.1898C1.4293 16.0352 1.09375 15.5957 1.09375 15.0781C1.09375 14.7547 1.225 14.4617 1.43711 14.2496C1.64922 14.0375 1.94219 13.9062 2.26562 13.9062" stroke="#141414" stroke-width="1.3" stroke-miterlimit="10" stroke-linecap="round" stroke-linejoin="round"/>
</svg>
