<svg width="20" height="20" viewBox="0 0 20 20" fill="none" xmlns="http://www.w3.org/2000/svg">
<path d="M10.0005 15.7433C10.0005 16.457 9.36217 17.0387 8.661 16.9031C7.75163 16.7277 6.87038 16.3715 6.07467 15.8348C5.48014 15.434 5.43405 14.5687 5.93952 14.0609L14.0614 5.93905C14.5669 5.43124 14.5208 4.566 13.9262 4.16522C13.1305 3.6285 12.2493 3.27225 11.3399 3.09686C10.6387 2.96132 10.0005 3.54296 10.0005 4.25663" stroke="#141414" stroke-width="1.3" stroke-miterlimit="10" stroke-linecap="round" stroke-linejoin="round"/>
<path d="M10 4.25977V15.7402" stroke="#141414" stroke-width="1.3" stroke-miterlimit="10" stroke-linecap="round" stroke-linejoin="round"/>
<path d="M14.0609 14.0608C14.5656 14.5655 14.5258 15.4284 13.9344 15.8284C13.1672 16.3472 12.2922 16.7186 11.3496 16.9018C10.6465 17.0382 10.002 16.4597 10 15.7433V15.7401" stroke="#141414" stroke-width="1.3" stroke-miterlimit="10" stroke-linecap="round" stroke-linejoin="round"/>
<path d="M5.94141 5.94111L14.0594 14.0591" stroke="#141414" stroke-width="1.3" stroke-miterlimit="10" stroke-linecap="round" stroke-linejoin="round"/>
<path d="M9.99993 4.25967V4.25654C9.99797 3.54014 9.35344 2.96162 8.65032 3.09795C7.70774 3.28115 6.83274 3.65264 6.06555 4.17139C5.47415 4.57139 5.4343 5.43428 5.93899 5.93896" stroke="#141414" stroke-width="1.3" stroke-miterlimit="10" stroke-linecap="round" stroke-linejoin="round"/>
<path d="M15.743 10C16.4566 10 17.0383 10.6383 16.9027 11.3395C16.7273 12.2489 16.3711 13.1301 15.8344 13.9258C15.4336 14.5203 14.5684 14.5664 14.0605 14.061L14.0586 14.059" stroke="#141414" stroke-width="1.3" stroke-miterlimit="10" stroke-linecap="round" stroke-linejoin="round"/>
<path d="M4.25977 10H15.7402" stroke="#141414" stroke-width="1.3" stroke-miterlimit="10" stroke-linecap="round" stroke-linejoin="round"/>
<path d="M5.94103 5.94102L5.93907 5.93906C5.43126 5.43359 4.56603 5.47969 4.16525 6.07422C3.62853 6.86992 3.27228 7.75117 3.09689 8.66055C2.96134 9.36172 3.54298 10 4.25665 10" stroke="#141414" stroke-width="1.3" stroke-miterlimit="10" stroke-linecap="round" stroke-linejoin="round"/>
<path d="M4.25987 10.0001H4.25675C3.54034 10.002 2.96183 10.6466 3.09816 11.3497C3.28136 12.2923 3.65284 13.1673 4.17159 13.9344C4.57159 14.5259 5.43448 14.5657 5.93917 14.061" stroke="#141414" stroke-width="1.3" stroke-miterlimit="10" stroke-linecap="round" stroke-linejoin="round"/>
<path d="M14.0605 5.93906C14.5652 5.43438 15.4281 5.47422 15.8281 6.06563C16.3469 6.83281 16.7184 7.70781 16.9016 8.65039C17.0379 9.35352 16.4594 9.99805 15.743 10H15.7398" stroke="#141414" stroke-width="1.3" stroke-miterlimit="10" stroke-linecap="round" stroke-linejoin="round"/>
<path d="M17.1875 16.7969C17.1875 17.0126 17.0126 17.1875 16.7969 17.1875C16.5811 17.1875 16.4062 17.0126 16.4062 16.7969C16.4062 16.5811 16.5811 16.4063 16.7969 16.4063C17.0126 16.4063 17.1875 16.5811 17.1875 16.7969Z" fill="#141414"/>
<path d="M15.4461 17.9206C13.8987 18.9859 12.0229 19.6094 10 19.6094C4.68906 19.6094 0.390625 15.3117 0.390625 10C0.390625 4.68906 4.68828 0.390625 10 0.390625C15.3109 0.390625 19.6094 4.68828 19.6094 10C19.6094 12.0228 18.986 13.8986 17.9205 15.4461" stroke="#141414" stroke-width="1.3" stroke-miterlimit="10" stroke-linecap="round" stroke-linejoin="round"/>
</svg>
