<svg width="20" height="20" viewBox="0 0 20 20" fill="none" xmlns="http://www.w3.org/2000/svg">
<path d="M14.394 2.14902C14.5615 2.77418 14.1905 3.41676 13.5653 3.5843C12.9402 3.7518 12.2976 3.38078 12.1301 2.75562C11.9626 2.13047 12.3335 1.48789 12.9587 1.32039C13.5839 1.15289 14.2264 1.52387 14.394 2.14902Z" stroke="#141414" stroke-width="1.3" stroke-miterlimit="10" stroke-linecap="round" stroke-linejoin="round"/>
<path d="M18.5557 8.62781C18.3067 8.50086 18.0136 8.4582 17.7224 8.53625C17.0972 8.70375 16.7262 9.34636 16.8937 9.97148C17.0612 10.5966 17.7038 10.9676 18.329 10.8001C18.6202 10.7221 18.8527 10.5386 19.0049 10.3042" stroke="#141414" stroke-width="1.3" stroke-miterlimit="10" stroke-linecap="round" stroke-linejoin="round"/>
<path d="M12.3047 19.4141H1.36719C0.935703 19.4141 0.585938 19.0643 0.585938 18.6328V7.69531C0.585938 7.26383 0.935703 6.91406 1.36719 6.91406H12.3047C12.7362 6.91406 13.0859 7.26383 13.0859 7.69531V18.6328C13.0859 19.0643 12.7362 19.4141 12.3047 19.4141Z" stroke="#141414" stroke-width="1.3" stroke-miterlimit="10" stroke-linecap="round" stroke-linejoin="round"/>
<path d="M10.7422 8.08594C10.7422 8.73313 10.2175 9.25781 9.57031 9.25781C8.92312 9.25781 8.39844 8.73313 8.39844 8.08594C8.39844 7.43875 8.92312 6.91406 9.57031 6.91406C10.2175 6.91406 10.7422 7.43875 10.7422 8.08594Z" stroke="#141414" stroke-width="1.3" stroke-miterlimit="10" stroke-linecap="round" stroke-linejoin="round"/>
<path d="M9.17969 13.1641C9.17969 13.8113 8.655 14.3359 8.00781 14.3359C7.36062 14.3359 6.83594 13.8113 6.83594 13.1641C6.83594 12.5169 7.36062 11.9922 8.00781 11.9922C8.655 11.9922 9.17969 12.5169 9.17969 13.1641Z" stroke="#141414" stroke-width="1.3" stroke-miterlimit="10" stroke-linecap="round" stroke-linejoin="round"/>
<path d="M5.27344 15.8984C5.27344 16.5456 4.74875 17.0703 4.10156 17.0703C3.45437 17.0703 2.92969 16.5456 2.92969 15.8984C2.92969 15.2512 3.45437 14.7266 4.10156 14.7266C4.74875 14.7266 5.27344 15.2512 5.27344 15.8984Z" stroke="#141414" stroke-width="1.3" stroke-miterlimit="10" stroke-linecap="round" stroke-linejoin="round"/>
<path d="M13.0859 15.4213C12.8783 15.2343 12.6062 15.1172 12.3047 15.1172C11.6575 15.1172 11.1328 15.6419 11.1328 16.2891C11.1328 16.9363 11.6575 17.4609 12.3047 17.4609C12.6062 17.4609 12.8783 17.3439 13.0859 17.1568" stroke="#141414" stroke-width="1.3" stroke-miterlimit="10" stroke-linecap="round" stroke-linejoin="round"/>
<path d="M0.585938 11.2975C0.793594 11.4845 1.0657 11.6016 1.36719 11.6016C2.01441 11.6016 2.53906 11.0769 2.53906 10.4297C2.53906 9.7825 2.01441 9.25781 1.36719 9.25781C1.0657 9.25781 0.793594 9.37488 0.585938 9.56195" stroke="#141414" stroke-width="1.3" stroke-miterlimit="10" stroke-linecap="round" stroke-linejoin="round"/>
<path d="M13.0855 14.2271L18.8344 12.6867C19.2512 12.575 19.4985 12.1466 19.3868 11.7298L16.556 1.16498C16.4443 0.748224 16.0159 0.50088 15.5992 0.612599L5.03432 3.44338C4.61756 3.5551 4.37021 3.9835 4.48189 4.40026L5.15541 6.91389" stroke="#141414" stroke-width="1.3" stroke-miterlimit="10" stroke-linecap="round" stroke-linejoin="round"/>
</svg>
