<svg width="18" height="20" viewBox="0 0 18 20" fill="none" xmlns="http://www.w3.org/2000/svg">
<path d="M15.4949 10.35C15.9457 10.4781 16.4219 10.5469 16.9141 10.5469H17.2031L16.8883 7.39844C16.6242 4.75781 14.407 2.74492 11.7551 2.73477C11.748 2.73438 11.7414 2.73438 11.7344 2.73438V5.36719C11.7344 7.73555 13.3242 9.73281 15.4949 10.35Z" stroke="#141414" stroke-width="1.3" stroke-miterlimit="10" stroke-linecap="round" stroke-linejoin="round"/>
<path d="M14.8594 0.390528H14.4117C13.0457 0.390528 11.9187 1.41318 11.7551 2.73467C11.7539 2.74326 11.7527 2.75186 11.752 2.76045C11.7402 2.86123 11.7344 2.96396 11.7344 3.06787" stroke="#141414" stroke-width="1.3" stroke-miterlimit="10" stroke-linecap="round" stroke-linejoin="round"/>
<path d="M14.8594 6.64062C13.8203 5.60156 12.8863 4.46211 12.0711 3.23945L11.7344 2.73438" stroke="#141414" stroke-width="1.3" stroke-miterlimit="10" stroke-linecap="round" stroke-linejoin="round"/>
<path d="M11.7348 3.06797C11.0465 2.82461 10.3707 2.71289 9.72266 2.71289C6.47773 2.71289 3.92226 5.51055 3.92226 8.59375C3.92226 14.1383 0.789062 15.5289 0.789062 17.5715C0.789062 18.5773 1.65273 19.6094 5.09414 19.6094C7.72242 19.6094 10.1261 18.5295 11.9727 16.8214" stroke="#141414" stroke-width="1.3" stroke-miterlimit="10" stroke-linecap="round" stroke-linejoin="round"/>
<path d="M13.9512 14.418C14.7175 13.1798 15.2535 11.795 15.4958 10.35" stroke="#141414" stroke-width="1.3" stroke-miterlimit="10" stroke-linecap="round" stroke-linejoin="round"/>
<path d="M13.4531 15.7031C13.4531 15.9189 13.2782 16.0938 13.0625 16.0938C12.8468 16.0938 12.6719 15.9189 12.6719 15.7031C12.6719 15.4874 12.8468 15.3125 13.0625 15.3125C13.2782 15.3125 13.4531 15.4874 13.4531 15.7031Z" fill="#141414"/>
</svg>
