<svg width="20" height="20" viewBox="0 0 20 20" fill="none" xmlns="http://www.w3.org/2000/svg">
<path d="M15.8847 11.9055C15.903 12.0936 15.9125 12.2804 15.9125 12.4655C15.9125 16.4111 12.7059 19.6096 8.7502 19.6096C4.79453 19.6096 1.58789 16.4111 1.58789 12.4655C1.58789 7.38715 8.75023 1.0791 8.75023 1.0791C8.75023 1.0791 9.77082 1.97797 11.0415 3.37023" stroke="#141414" stroke-width="1.3" stroke-miterlimit="10" stroke-linecap="round" stroke-linejoin="round"/>
<path d="M8.38641 17.3335C5.89234 17.3335 3.86328 15.3117 3.86328 12.8267" stroke="#141414" stroke-width="1.3" stroke-miterlimit="10" stroke-linecap="round" stroke-linejoin="round"/>
<path d="M18.4113 7.72863C18.4113 10.2714 16.3448 12.3327 13.7955 12.3327C11.2462 12.3327 9.17969 10.2714 9.17969 7.72863C9.17969 4.4559 13.7955 0.390625 13.7955 0.390625C13.7955 0.390625 18.4113 4.4559 18.4113 7.72863Z" stroke="#141414" stroke-width="1.3" stroke-miterlimit="10" stroke-linecap="round" stroke-linejoin="round"/>
</svg>
