<svg width="20" height="20" viewBox="0 0 20 20" fill="none" xmlns="http://www.w3.org/2000/svg">
<path d="M15.612 5.53559V2.29574L12.8062 0.675783L10.0004 2.2957L7.19461 0.675783L4.38883 2.29574V5.53559L1.58301 7.15551V10.3954L4.38883 12.0153V15.2552L7.19461 16.8751L10.0004 15.2552L11.6343 16.1985V18.2422C11.6343 18.8894 12.159 19.4141 12.8062 19.4141C13.4534 19.4141 13.9781 18.8894 13.9781 18.2422V16.1985L15.612 15.2552V12.0153L18.4179 10.3954V7.15551L15.612 5.53559Z" stroke="#141414" stroke-width="1.3" stroke-miterlimit="10"/>
<path d="M10 2.2958V5.53564" stroke="#141414" stroke-width="1.3" stroke-miterlimit="10"/>
<path d="M12.8066 7.15566V10.3955" stroke="#141414" stroke-width="1.3" stroke-miterlimit="10"/>
<path d="M7.19434 7.15566V10.3955" stroke="#141414" stroke-width="1.3" stroke-miterlimit="10"/>
<path d="M10 12.0155V15.2554" stroke="#141414" stroke-width="1.3" stroke-miterlimit="10"/>
<path d="M10.0002 12.0151L7.19434 10.3952" stroke="#141414" stroke-width="1.3" stroke-miterlimit="10"/>
<path d="M7.19449 10.3952L4.38867 12.0151" stroke="#141414" stroke-width="1.3" stroke-miterlimit="10"/>
<path d="M10.0002 5.53535L7.19434 7.15527" stroke="#141414" stroke-width="1.3" stroke-miterlimit="10"/>
<path d="M7.19449 7.15576L4.38867 5.53584" stroke="#141414" stroke-width="1.3" stroke-miterlimit="10"/>
<path d="M15.6125 12.0151L12.8066 10.3952" stroke="#141414" stroke-width="1.3" stroke-miterlimit="10"/>
<path d="M12.8058 10.3952L10 12.0151" stroke="#141414" stroke-width="1.3" stroke-miterlimit="10"/>
<path d="M15.6125 5.53535L12.8066 7.15527" stroke="#141414" stroke-width="1.3" stroke-miterlimit="10"/>
<path d="M12.8058 7.15576L10 5.53584" stroke="#141414" stroke-width="1.3" stroke-miterlimit="10"/>
</svg>
