<svg width="20" height="20" viewBox="0 0 20 20" fill="none" xmlns="http://www.w3.org/2000/svg">
<path d="M11.8296 7.50241C11.3151 5.40227 10.3072 3.43781 8.87009 1.78091L8.11697 0.912598L7.36385 1.78091C5.63766 3.77116 4.53078 6.20512 4.1543 8.78494" stroke="#141414" stroke-width="1.3" stroke-miterlimit="10"/>
<path d="M5.99219 3.57959L8.1166 4.84101L10.241 3.57959" stroke="#141414" stroke-width="1.3" stroke-miterlimit="10"/>
<path d="M8.61746 10.812C6.60733 9.41879 4.24766 8.57967 1.77838 8.40422L0.631836 8.32275L0.7133 9.46929C0.947268 12.7617 2.36096 15.8592 4.69491 18.1931C6.29853 19.7968 8.89854 19.7968 10.5022 18.1931C11.0448 17.6505 11.4038 16.9937 11.5793 16.3001" stroke="#141414" stroke-width="1.3" stroke-miterlimit="10"/>
<path d="M1.01562 11.7109L3.40977 11.1007L4.01998 8.70654" stroke="#141414" stroke-width="1.3" stroke-miterlimit="10"/>
<path d="M15.3049 15.1804C17.6389 12.8465 19.0526 9.74899 19.2865 6.4566L19.368 5.31006L18.2215 5.39152C14.9291 5.62549 11.8316 7.03918 9.49764 9.37313C7.89402 10.9768 7.89402 13.5768 9.49764 15.1804C11.1013 16.7841 13.7013 16.7841 15.3049 15.1804Z" stroke="#141414" stroke-width="1.3" stroke-miterlimit="10"/>
<path d="M15.9795 5.69385L16.5897 8.08803L18.9839 8.69824" stroke="#141414" stroke-width="1.3" stroke-miterlimit="10"/>
</svg>
