<svg width="255" height="56" viewBox="0 0 255 56" fill="none" xmlns="http://www.w3.org/2000/svg">
<path d="M140.899 16.5645C138.502 19.2822 142.16 22.326 142.16 22.326C142.16 22.326 145.945 25.2611 148.888 22.9782C151.873 20.6954 152.252 15.6948 150.906 14.1729C149.056 13.122 143.296 13.8467 140.899 16.5645Z" fill="#D25243"/>
<path d="M150.948 14.1729C149.098 13.122 143.338 13.8467 140.899 16.5645C139.47 18.1588 140.184 19.8982 140.983 21.0215C140.983 20.7678 140.899 20.5142 140.857 20.2968C140.689 19.6808 140.689 18.956 141.194 18.5574C141.446 18.34 141.824 18.2676 142.077 18.0501C142.203 17.9052 142.329 17.7602 142.497 17.6515C142.707 17.5428 143.002 17.5791 143.212 17.5066C143.674 17.3616 143.885 16.8906 144.305 16.6732C144.473 16.5645 144.726 16.5282 144.936 16.492C145.566 16.3108 146.155 15.9847 146.576 15.5136C146.87 15.1875 147.08 14.7889 147.417 14.499C147.753 14.2091 148.3 14.0279 148.72 14.2453C149.309 14.5352 149.309 15.3687 149.897 15.5498C150.023 15.5861 150.192 15.5861 150.36 15.6223C150.78 15.731 151.117 16.0571 151.243 16.4195C151.411 16.7819 151.411 17.1805 151.495 17.5791C151.495 17.6515 151.537 17.7603 151.579 17.7965C151.789 16.2383 151.537 14.8614 150.948 14.1729Z" fill="#BF4E44"/>
<path d="M148.259 22.1811C148.469 21.9997 148.763 21.9272 148.889 22.036C149.015 22.1448 148.973 22.3988 148.763 22.5801C148.553 22.7615 148.259 22.8341 148.132 22.7252C148.006 22.6164 148.048 22.3988 148.259 22.1811Z" fill="#F3CC80"/>
<path d="M149.141 20.2973C149.352 20.1159 149.646 20.0434 149.772 20.1522C149.898 20.261 149.856 20.515 149.646 20.6964C149.436 20.8777 149.141 20.9503 149.015 20.8415C148.889 20.7326 148.931 20.515 149.141 20.2973Z" fill="#F3CC80"/>
<path d="M149.771 18.5581C149.982 18.3767 150.276 18.3041 150.402 18.413C150.528 18.5218 150.486 18.7757 150.276 18.9571C150.066 19.1385 149.771 19.211 149.645 19.1022C149.519 18.9934 149.561 18.7394 149.771 18.5581Z" fill="#F3CC80"/>
<path d="M150.192 16.6367C150.402 16.4553 150.697 16.3827 150.823 16.4916C150.949 16.6004 150.907 16.8543 150.697 17.0357C150.487 17.2171 150.192 17.2896 150.066 17.1808C149.94 17.1083 149.982 16.8543 150.192 16.6367Z" fill="#F3CC80"/>
<path d="M141.867 17.0733C142.077 16.8919 142.119 16.638 141.993 16.5292C141.867 16.4203 141.572 16.4929 141.362 16.6743C141.152 16.8556 141.11 17.1096 141.236 17.2184C141.362 17.3272 141.656 17.2547 141.867 17.0733Z" fill="#F3CC80"/>
<path d="M143.969 16.1671C144.179 15.9857 144.222 15.7317 144.095 15.6229C143.969 15.5141 143.675 15.5866 143.465 15.768C143.254 15.9494 143.212 16.2033 143.339 16.3122C143.465 16.421 143.759 16.3484 143.969 16.1671Z" fill="#F3CC80"/>
<path d="M145.945 15.4781C146.155 15.2967 146.197 15.0428 146.071 14.9339C145.945 14.8251 145.651 14.8977 145.44 15.0791C145.23 15.2604 145.188 15.5144 145.314 15.6232C145.44 15.7683 145.735 15.6958 145.945 15.4781Z" fill="#F3CC80"/>
<path d="M148.131 15.0069C148.342 14.8255 148.384 14.5716 148.257 14.4628C148.131 14.3539 147.837 14.4265 147.627 14.6079C147.417 14.7892 147.375 15.0432 147.501 15.152C147.627 15.2608 147.921 15.1883 148.131 15.0069Z" fill="#F3CC80"/>
<path d="M149.856 14.7529C150.067 14.5715 150.361 14.4989 150.487 14.6078C150.613 14.7166 150.571 14.9705 150.361 15.1519C150.151 15.3333 149.856 15.4059 149.73 15.297C149.604 15.1882 149.646 14.9343 149.856 14.7529Z" fill="#F3CC80"/>
<path d="M148.259 16.2392C148.469 16.0578 148.763 15.9853 148.889 16.0941C149.015 16.2029 148.973 16.4569 148.763 16.6383C148.553 16.8196 148.259 16.8922 148.132 16.7834C148.006 16.6745 148.048 16.4206 148.259 16.2392Z" fill="#F3CC80"/>
<path d="M146.659 17.7241C146.869 17.5427 147.164 17.4701 147.29 17.579C147.416 17.6878 147.374 17.9417 147.164 18.1231C146.953 18.3045 146.659 18.377 146.533 18.2682C146.407 18.1594 146.449 17.9055 146.659 17.7241Z" fill="#F3CC80"/>
<path d="M145.061 19.2104C145.272 19.029 145.566 18.9565 145.692 19.0653C145.818 19.1741 145.776 19.4281 145.566 19.6094C145.356 19.7908 145.061 19.8634 144.935 19.7545C144.809 19.6457 144.851 19.3918 145.061 19.2104Z" fill="#F3CC80"/>
<path d="M143.973 21.0871C144.178 20.896 144.234 20.6527 144.098 20.5438C143.961 20.4348 143.684 20.5014 143.479 20.6925C143.273 20.8837 143.217 21.1269 143.353 21.2359C143.49 21.3448 143.767 21.2782 143.973 21.0871Z" fill="#F3CC80"/>
<path d="M145.273 22.1088C145.483 21.9275 145.778 21.8549 145.904 21.9637C146.03 22.0726 145.988 22.3265 145.778 22.5079C145.568 22.6893 145.273 22.7618 145.147 22.653C145.021 22.5442 145.063 22.2902 145.273 22.1088Z" fill="#F3CC80"/>
<path d="M146.869 20.1884C147.079 20.007 147.373 19.9345 147.5 20.0433C147.626 20.1522 147.584 20.4061 147.373 20.5875C147.163 20.7689 146.869 20.8414 146.743 20.7326C146.575 20.6237 146.659 20.3698 146.869 20.1884Z" fill="#F3CC80"/>
<path d="M148.174 18.268C148.384 18.0866 148.678 18.0141 148.804 18.1229C148.931 18.2317 148.888 18.4857 148.678 18.6671C148.468 18.8484 148.174 18.921 148.048 18.8122C147.921 18.7033 147.963 18.4494 148.174 18.268Z" fill="#F3CC80"/>
<path d="M142.203 19.6451C142.413 19.4637 142.455 19.2098 142.329 19.1009C142.203 18.9921 141.908 19.0647 141.698 19.2461C141.488 19.4274 141.446 19.6814 141.572 19.7902C141.698 19.899 141.992 19.8627 142.203 19.6451Z" fill="#F3CC80"/>
<path d="M144.305 18.1231C144.515 17.9417 144.557 17.6878 144.431 17.579C144.305 17.4701 144.011 17.5427 143.801 17.7241C143.59 17.9055 143.548 18.1594 143.674 18.2682C143.801 18.377 144.095 18.3408 144.305 18.1231Z" fill="#F3CC80"/>
<path d="M146.408 16.855C146.618 16.6737 146.66 16.4197 146.534 16.3109C146.408 16.2021 146.113 16.2746 145.903 16.456C145.693 16.6374 145.651 16.8913 145.777 17.0002C145.903 17.109 146.197 17.0364 146.408 16.855Z" fill="#F3CC80"/>
<path d="M144.853 19.8982C144.727 19.8982 144.559 19.9344 144.432 20.0069C144.18 20.1881 144.306 20.5142 144.264 20.7679C144.18 21.094 143.844 21.3114 143.507 21.4926C143.171 21.6738 142.835 21.9637 142.877 22.2898C142.919 22.6159 143.255 22.8333 143.591 22.9783C144.474 23.4131 145.568 23.6668 146.451 23.2319C146.829 23.0508 147.123 22.7971 147.376 22.5072C147.628 22.2898 147.838 22.0361 147.964 21.7463C148.133 21.3477 148.048 20.8766 148.301 20.5142C148.385 20.3693 148.511 20.2606 148.553 20.1156C148.679 19.7895 148.259 19.7895 148.09 20.0069C147.838 20.333 147.628 20.6229 147.334 20.9128C147.207 21.0215 147.123 21.1302 146.955 21.1665C146.745 21.2027 146.535 21.094 146.367 21.0215C146.198 20.9491 145.862 21.0215 145.862 21.2027C145.862 21.2752 145.904 21.3114 145.946 21.3839C146.114 21.6738 146.072 22.0361 145.904 22.326C145.736 22.6159 145.357 22.7971 144.979 22.8333C144.685 22.8696 144.348 22.7971 144.096 22.6522C143.718 22.471 143.76 22.0361 143.97 21.7463C144.306 21.2752 144.769 20.8766 145.189 20.4417C145.315 20.333 145.399 20.2243 145.526 20.1156C145.652 20.0432 145.778 20.0069 145.904 19.9707C146.493 19.7533 146.955 19.3909 147.418 19.0285C147.544 18.9198 147.67 18.8111 147.754 18.7024C147.88 18.5212 147.88 18.3038 147.964 18.0864C148.133 17.6516 148.553 17.5791 148.931 17.2892C148.973 17.253 149.015 17.2167 149.058 17.1443C149.142 16.7094 148.048 17.0718 147.88 17.1805C147.376 17.4704 147.292 18.0864 146.871 18.485C146.619 18.7024 146.282 18.5937 146.03 18.7386C145.904 18.8474 145.988 18.8836 145.988 19.0285C146.03 19.2097 145.946 19.3184 145.778 19.4634C145.568 19.717 145.231 19.862 144.853 19.8982Z" fill="#D76862"/>
<path d="M144.558 22.8331C144.726 22.8331 145.272 23.0505 145.314 23.1955C145.272 22.8694 145.02 22.5795 144.768 22.3258C144.347 21.891 143.759 21.4562 143.086 21.4924C142.834 21.4924 142.623 21.6011 142.413 21.6736C142.413 21.6736 142.413 21.6736 142.413 21.6373C142.497 21.4924 142.455 21.3112 142.371 21.1663C142.371 21.13 142.329 21.0938 142.329 21.0576C142.203 20.8401 142.077 20.6227 141.951 20.4415C141.782 20.2604 141.656 20.0792 141.446 19.9342C141.11 19.6806 140.857 19.6081 140.437 19.5356C140.395 19.5356 140.353 19.5356 140.311 19.5356C140.227 19.5356 140.185 19.5356 140.101 19.5719C139.974 19.6081 139.848 19.6081 139.722 19.5719C139.764 19.6081 139.848 19.6444 139.932 19.6806C140.227 19.7531 140.479 19.9342 140.605 20.1517C140.731 20.3328 140.941 20.514 141.068 20.6952C141.068 20.7314 141.152 21.0213 141.152 21.0213C140.353 20.7314 139.344 20.8039 138.629 21.275C138.755 21.2025 139.133 21.2387 139.26 21.2387C139.47 21.2387 139.68 21.275 139.89 21.3112C140.101 21.3474 140.311 21.4199 140.479 21.5286C140.689 21.6736 140.857 21.8185 141.026 21.9997C141.194 22.1446 141.32 22.2534 141.404 22.4345C141.446 22.5432 141.446 22.6519 141.53 22.7244C141.656 22.8331 141.909 22.7969 142.077 22.8694C142.161 22.9056 142.245 22.9781 142.329 23.0506C142.497 23.268 142.623 23.5216 142.623 23.7753C142.581 24.0652 142.539 24.355 142.539 24.6449C142.792 24.4638 142.918 24.2101 143.086 23.9565C143.17 23.8477 143.212 23.8115 143.212 23.6666C143.212 23.5579 143.128 23.3404 143.17 23.268C143.17 23.2317 143.212 23.268 143.254 23.268C143.548 23.4854 143.843 23.739 144.137 23.9565C144.179 23.9927 144.221 24.0289 144.305 24.0652C144.389 24.1376 144.516 24.2101 144.6 24.2826C144.684 24.355 144.768 24.4275 144.852 24.5C144.81 24.4638 144.852 24.3188 144.852 24.2463C144.852 24.1376 144.852 24.0652 144.81 23.9565C144.768 23.7753 144.726 23.5579 144.642 23.4129C144.515 23.268 144.305 23.123 144.137 23.0143C143.927 22.8694 143.717 22.7607 143.506 22.652C143.548 22.6882 143.759 22.652 143.801 22.652C143.885 22.652 143.969 22.6882 144.053 22.7244C144.137 22.8694 144.347 22.8331 144.558 22.8331Z" fill="#109D59"/>
<path d="M144.305 22.1086C144.431 22.1811 144.516 22.2898 144.642 22.4347C144.768 22.5434 144.894 22.6884 144.978 22.7971C144.81 22.7246 144.642 22.6884 144.558 22.6884C144.347 22.6884 144.179 22.7246 144.011 22.6521C143.927 22.6159 143.843 22.5797 143.717 22.5797C143.633 22.5797 143.59 22.5797 143.506 22.5797C143.422 22.5797 143.422 22.5434 143.338 22.5797C143.296 22.6159 143.254 22.6159 143.17 22.6159C143.128 22.6159 143.086 22.6159 143.086 22.6521C143.338 22.8333 143.633 22.942 143.927 23.1232C143.969 23.1594 144.011 23.1594 144.053 23.1957C144.137 23.2319 144.221 23.3044 144.305 23.3769C144.347 23.4131 144.389 23.4493 144.431 23.4856C144.516 23.6305 144.558 23.8117 144.6 23.9929C144.6 24.0653 144.6 24.1016 144.642 24.174L144.389 23.9566C144.347 23.9204 144.305 23.8842 144.221 23.8479C144.053 23.703 143.843 23.5943 143.675 23.4493C143.548 23.3406 143.422 23.2681 143.296 23.1594C143.254 23.1232 143.17 23.087 143.128 23.1232C143.086 23.1232 143.044 23.1594 143.002 23.1957C142.96 23.2681 143.002 23.3769 143.002 23.4856C143.002 23.5218 143.044 23.5943 143.044 23.6305C143.044 23.703 143.002 23.7392 142.918 23.8479C142.834 23.9204 142.792 24.0291 142.75 24.1016C142.75 24.1378 142.708 24.1378 142.708 24.174L142.75 23.7755C142.792 23.4856 142.581 23.1594 142.455 22.9783C142.413 22.9058 142.371 22.8696 142.329 22.8333C142.287 22.7971 142.245 22.7608 142.161 22.7246C142.077 22.6884 141.993 22.6884 141.909 22.6521C141.825 22.6521 141.74 22.6159 141.698 22.5797C141.656 22.5434 141.656 22.471 141.614 22.4347C141.614 22.3985 141.614 22.3622 141.572 22.3622C141.488 22.1811 141.32 21.9999 141.194 21.8549C141.068 21.7462 140.899 21.6013 140.731 21.4926C140.689 21.4563 140.647 21.4201 140.605 21.3839C140.395 21.2027 140.185 21.1665 139.974 21.1302C139.764 21.094 139.554 21.0577 139.344 21.0577C139.89 20.8766 140.563 20.8766 141.11 21.094L141.194 21.1302L141.278 21.0577C141.404 20.949 141.236 20.6229 141.236 20.5867C141.152 20.4417 141.026 20.333 140.942 20.2243C140.899 20.1518 140.815 20.0794 140.773 20.0431C140.731 19.9707 140.647 19.8982 140.563 19.8257C140.479 19.7532 140.395 19.717 140.311 19.6445H140.353C140.395 19.6445 140.437 19.6445 140.437 19.6445C140.857 19.6808 141.11 19.7895 141.362 20.0069L141.404 20.0431C141.53 20.1518 141.698 20.2968 141.825 20.478C141.993 20.6591 142.077 20.8766 142.203 21.094C142.203 21.1302 142.245 21.1665 142.245 21.2027C142.287 21.3114 142.329 21.4563 142.287 21.6013C142.245 21.6738 142.287 21.71 142.329 21.7825L142.371 21.8187H142.455H142.497L142.581 21.7825C142.792 21.71 142.96 21.6375 143.128 21.6375C143.506 21.6375 143.885 21.7825 144.305 22.1086Z" fill="#109D59"/>
<path d="M142.119 22.6162C141.32 23.812 139.05 25.6238 137.073 25.6238C136.695 25.5875 136.358 25.3701 136.274 24.9353C136.19 24.3917 136.569 23.9569 137.115 23.9931C137.578 24.0294 139.68 24.0294 141.488 22.0726C141.488 22.0726 141.656 22.0002 141.951 22.2176C142.203 22.435 142.119 22.6162 142.119 22.6162Z" fill="#109D59"/>
<path d="M2.31259 5.11399C2.31259 3.80949 2.1444 2.90358 1.80803 2.3238C1.47165 1.78026 0.882988 1.49038 0 1.49038V0.584473H18.6269C20.0985 0.584473 21.3179 0.656945 22.327 0.765653C23.3361 0.874362 24.2612 1.20048 25.018 1.70778C25.7749 2.21509 26.1953 3.04852 26.1953 4.13561C26.1953 5.47634 25.5226 6.59966 24.135 7.50556C22.7475 8.41146 21.1076 9.17243 19.1314 9.82468C21.7804 10.2233 24.0089 11.0567 25.8589 12.325C27.667 13.5932 28.592 15.2963 28.592 17.4343C28.592 18.6663 28.2136 19.7534 27.4988 20.7317C26.784 21.7101 25.7328 22.5073 24.4293 23.1233C22.7475 23.9568 20.0144 24.3916 16.2722 24.3916H0V23.4857C0.840941 23.4857 1.4296 23.1958 1.80803 22.6523C2.1444 22.1087 2.31259 21.1666 2.31259 19.8621V5.11399ZM10.9322 9.86091C11.9834 9.64349 12.9925 9.3536 14.0437 8.95501C15.0949 8.55641 15.9779 8.01287 16.7347 7.39686C17.4916 6.74461 17.87 6.01988 17.87 5.18645C17.87 4.42549 17.4916 3.84571 16.6927 3.51959C15.9358 3.19346 15.0108 3.01229 14.0437 3.01229C12.6982 3.01229 11.8152 3.19347 11.3527 3.55583C11.0584 3.80948 10.9322 4.35302 10.9322 5.22269V9.86091ZM10.9322 19.6447C10.9322 20.3331 10.9743 20.8405 11.0584 21.1666C11.1425 21.4927 11.3527 21.7101 11.7311 21.8551C12.0675 22 12.6562 22.0725 13.4551 22.0725C14.6324 22.0725 15.7256 21.8913 16.6506 21.4927C17.5757 21.1303 18.3325 20.5506 18.8791 19.8258C19.4257 19.1011 19.678 18.1952 19.678 17.1444C19.678 15.8761 19.2576 14.7166 18.4587 13.7382C17.6177 12.7598 16.5245 11.9264 15.1369 11.2741L10.9322 12.5062V19.6447Z" fill="#109D59"/>
<path d="M35.1512 19.3553C35.2774 20.3699 35.6978 21.2034 36.3285 21.8918C36.9592 22.5803 37.8422 22.9065 38.9775 22.9065C39.9446 22.9065 40.8276 22.6528 41.6265 22.1817C42.4254 21.7107 43.014 21.0584 43.3925 20.2975L43.9391 20.4786L42.3833 24.6458C42.0469 24.4646 41.7947 24.3559 41.5844 24.3559C41.5424 24.3559 41.4583 24.3559 41.3321 24.3921C41.206 24.4284 41.1219 24.4284 41.0378 24.4284C39.7344 24.6096 38.6832 24.7183 37.8422 24.7183C37.2115 24.7183 36.6229 24.682 35.9922 24.5733C35.3615 24.4646 34.7728 24.3559 34.1841 24.1747C33.5955 23.9935 33.0909 23.7399 32.5864 23.4138C32.0397 23.0876 31.5772 22.689 31.1988 22.218C30.8204 21.7469 30.484 21.2396 30.3158 20.6961C30.1476 20.1525 30.0215 19.5727 30.0215 18.993C30.0215 18.1233 30.2317 17.3261 30.6101 16.6014C30.9886 15.8766 31.5772 15.2969 32.292 14.8258C33.0068 14.3547 33.8057 13.9924 34.6887 13.775C35.5717 13.5575 36.5388 13.4126 37.5479 13.4126C38.3888 13.4126 39.1877 13.4851 39.9446 13.6662C40.7014 13.8474 41.3742 14.1011 41.9628 14.4634C42.5515 14.8258 43.0561 15.2606 43.4765 15.8404C43.897 16.384 44.1493 17.0362 44.2754 17.7609L35.1512 19.3553ZM39.1457 17.3261L39.1878 16.9637C39.1878 16.6376 39.1037 16.3477 38.9355 16.0578C38.7673 15.7679 38.515 15.5505 38.2207 15.3693C37.9263 15.1882 37.5479 15.1157 37.1695 15.1157C36.6649 15.1157 36.2445 15.2606 35.9081 15.5868C35.5717 15.9129 35.3615 16.2753 35.1933 16.7101C35.0671 17.1449 34.983 17.616 34.983 18.0508L39.1457 17.3261Z" fill="#109D59"/>
<path d="M52.9383 13.7017C55.2929 13.7017 57.0589 14.1003 58.2782 14.9337C58.7828 15.296 59.2033 15.6947 59.5817 16.1657C59.9601 16.6368 60.2545 17.1441 60.4226 17.6876C60.5908 18.2312 60.717 18.7747 60.717 19.3545C60.717 21.0576 59.9601 22.4346 58.4885 23.4129C57.3532 24.2101 55.5872 24.6087 53.1485 24.6087C52.8542 24.6087 52.4757 24.6087 52.0973 24.5725C51.7189 24.5363 51.4246 24.5 51.2143 24.5V26.8554C51.2143 27.3989 51.3405 27.8338 51.6348 28.1236C51.9291 28.4135 52.3076 28.5947 52.7701 28.5947V29.1382H44.8652V28.5947C45.3698 28.5585 45.7482 28.4135 46.0425 28.1236C46.3369 27.8338 46.463 27.3989 46.5051 26.8554V15.9845C46.463 14.8612 46.0005 14.2814 45.1175 14.2452V13.7017H52.9383ZM51.1723 21.4562C51.1723 22.1084 51.2564 22.5433 51.3825 22.7245C51.5928 23.0143 51.9291 23.1231 52.3496 23.1231C53.1065 23.1231 53.7372 22.9419 54.2417 22.5433C54.7463 22.1447 55.0827 21.6736 55.335 21.0938C55.5872 20.514 55.6713 19.898 55.6713 19.2458C55.6713 18.5211 55.5031 17.8326 55.1668 17.2166C54.8304 16.6006 54.3679 16.0932 53.7372 15.6946C53.1064 15.296 52.3496 15.1149 51.5087 15.1149H51.1723V21.4562Z" fill="#109D59"/>
<path d="M76.6101 13.7017V14.2452C76.1476 14.2452 75.8533 14.3902 75.6851 14.68C75.5169 14.9699 75.4328 15.4048 75.4328 16.0208V22.1447C75.4328 22.5433 75.5169 22.7607 75.6851 22.9056C75.8533 23.0506 76.1476 23.0868 76.6522 23.0868H77.1988C77.6613 23.0868 77.9977 23.0143 78.1659 22.9056C78.3341 22.7969 78.4182 22.5433 78.4182 22.1447V16.0208C78.4182 15.4048 78.3341 14.9699 78.1659 14.68C77.9977 14.3902 77.7034 14.2452 77.2408 14.2452V13.7017H84.4729V14.2452C83.5479 14.2452 83.1274 14.825 83.1274 16.0208V22.1447C83.1274 23.3042 83.5899 23.9202 84.4729 23.9202V24.4638H61.8096V23.9202C62.7346 23.9202 63.1551 23.3405 63.1551 22.1447V16.0208C63.1551 14.8612 62.6926 14.2452 61.8096 14.2452V13.7017H69.0417V14.2452C68.5792 14.2452 68.2848 14.3902 68.1166 14.68C67.9484 14.9699 67.8643 15.4048 67.8643 16.0208V22.1447C67.8643 22.5433 67.9484 22.7607 68.1166 22.9056C68.2848 23.0506 68.5791 23.0868 69.0837 23.0868H69.6303C70.0928 23.0868 70.4292 23.0143 70.5974 22.9056C70.7656 22.7969 70.8497 22.5433 70.8497 22.1447V16.0208C70.8497 15.4048 70.7656 14.9699 70.5974 14.68C70.4292 14.3902 70.1349 14.2452 69.6724 14.2452V13.7017H76.6101Z" fill="#E49306"/>
<path d="M86.8279 16.0208C86.8279 14.8612 86.3654 14.2452 85.4824 14.2452V13.7017H92.8407V14.2452C92.3781 14.2452 92.0838 14.3902 91.8736 14.68C91.6633 14.9699 91.5792 15.4048 91.5792 16.0208V18.7385L95.0271 16.0208C95.0271 15.4048 94.943 14.9699 94.7748 14.68C94.6066 14.3902 94.3123 14.2452 93.8498 14.2452V13.7017H101.124V14.2452C100.199 14.2452 99.7364 14.825 99.7364 16.0208V22.1447C99.7364 23.3042 100.199 23.9202 101.124 23.9202V24.4638H93.8498V23.9202C94.3123 23.9202 94.6066 23.7753 94.7748 23.4854C94.943 23.1955 95.0271 22.7607 95.0271 22.1447V17.8688L91.5792 20.5865V22.1447C91.5792 22.7245 91.6633 23.1955 91.8736 23.4854C92.0838 23.7753 92.3781 23.9202 92.8407 23.9202V24.4638H85.4824V23.9202C86.4075 23.9202 86.8279 23.3405 86.8279 22.1447V16.0208Z" fill="#E49306"/>
<path d="M103.477 16.0208C103.477 14.8612 103.015 14.2452 102.132 14.2452V13.7017H109.406V14.2452C108.943 14.2452 108.649 14.3902 108.481 14.68C108.313 14.9699 108.229 15.4048 108.229 16.0208V17.0716H111.677V16.0208C111.677 15.4048 111.592 14.9699 111.424 14.68C111.256 14.3902 110.962 14.2452 110.499 14.2452V13.7017H117.773V14.2452C116.848 14.2452 116.428 14.825 116.428 16.0208V22.1447C116.428 23.3042 116.89 23.9202 117.773 23.9202V24.4638H110.499V23.9202C110.962 23.9202 111.256 23.7753 111.424 23.4854C111.592 23.1955 111.677 22.7607 111.677 22.1447V18.4848H108.229V22.1447C108.229 22.7607 108.313 23.1955 108.481 23.4854C108.649 23.7753 108.943 23.9202 109.406 23.9202V24.4638H102.132V23.9202C103.057 23.9202 103.477 23.3405 103.477 22.1447V16.0208Z" fill="#109D59"/>
<path d="M103.267 28.8479C102.469 29.4639 101.796 30.3698 101.291 31.6018C100.787 32.8338 100.534 34.0659 100.534 35.4066C100.534 35.769 100.745 36.1313 101.207 36.4575C101.67 36.7836 102.3 36.9648 103.099 37.0372V37.5808H98.0957V37.3996C98.0957 33.776 99.3571 30.7684 101.838 28.3768V28.413C102.006 28.1594 102.132 27.9782 102.132 27.8333C102.132 27.5796 101.922 27.4709 101.544 27.4709H101.333V26.8911H112.602V27.4347C112.013 27.4347 111.635 27.6158 111.467 28.0144C111.298 28.413 111.214 28.9566 111.214 29.6813V34.8268C111.214 35.5878 111.298 36.1313 111.467 36.4937C111.635 36.856 112.013 37.0735 112.602 37.0735V37.617H105.328V37.0735C105.874 37.0735 106.169 36.8923 106.337 36.5299C106.505 36.1676 106.547 35.5878 106.547 34.8268V29.6813C106.547 29.029 106.505 28.6304 106.379 28.3768C106.253 28.1231 106.001 28.0507 105.622 28.0507C104.697 27.9782 103.94 28.2681 103.267 28.8479Z" fill="#109D59"/>
<path d="M121.306 32.1096C120.76 33.4866 120.508 34.465 120.508 35.0447C120.508 35.9869 121.138 36.5304 122.442 36.6391V37.545H113.191V36.6391C113.906 36.4942 114.495 36.2043 114.957 35.8057C115.42 35.4071 115.798 34.936 116.093 34.465C116.387 33.9939 116.723 33.3416 117.144 32.5082L123.745 17.4702C124.208 16.4918 124.46 15.8396 124.46 15.5135C124.46 14.9699 124.166 14.68 123.535 14.6076V13.7017H135.813V14.6076C135.182 14.68 134.846 14.9699 134.846 15.5135C134.846 15.6222 135.056 16.2744 135.518 17.434C135.939 18.5935 136.528 20.043 137.2 21.7461C137.873 23.4492 138.714 25.5871 139.681 28.0874C140.69 30.6239 141.237 32.0734 141.405 32.5082C141.615 33.0155 141.783 33.4503 141.952 33.8852C142.12 34.32 142.33 34.7186 142.582 35.1172C142.835 35.5158 143.171 35.8419 143.507 36.0956C143.844 36.3492 144.306 36.5304 144.853 36.5667V37.4726H130.347V36.5667C131.019 36.5304 131.608 36.313 132.028 35.9506C132.449 35.5883 132.659 35.081 132.659 34.465C132.659 33.6315 132.323 32.7981 131.608 31.9647C130.893 31.1312 130.094 30.4428 129.127 29.9354C127.361 28.8846 125.217 28.3411 122.778 28.3411L121.306 32.1096ZM126.773 18.5211L124.124 25.3335C126.058 25.3335 127.992 25.9132 129.968 27.109L126.773 18.5211Z" fill="#E49306"/>
<path d="M151.621 31.1672L153.471 29.609C154.018 29.138 154.439 28.7756 154.607 28.5944C154.775 28.4132 154.901 28.1596 154.901 27.9422C154.901 27.761 154.775 27.616 154.565 27.5073C154.354 27.3986 154.102 27.3624 153.85 27.3624V26.8188H161.25V27.3624C160.409 27.3986 159.568 27.5798 158.685 27.9059C157.802 28.2321 157.088 28.6306 156.415 29.1017L155.952 29.4641C157.214 30.8411 158.139 32.0369 158.769 33.0877L159.694 34.6821C159.863 34.972 160.031 35.2256 160.157 35.4793C160.283 35.7329 160.493 35.9866 160.662 36.204C160.83 36.4214 161.04 36.6026 161.292 36.7838C161.545 36.9649 161.797 37.0374 162.091 37.0374V37.581H153.808V37.0374C154.102 37.0374 154.397 36.965 154.565 36.82C154.733 36.6751 154.859 36.4577 154.859 36.1678C154.859 35.6605 154.565 35.0082 153.976 34.1385C153.387 33.2689 152.841 32.5804 152.294 32.0368L151.495 32.6529V34.6096C151.495 35.1894 151.495 35.6242 151.537 35.9503C151.579 36.2765 151.663 36.5301 151.874 36.7475C152.084 36.965 152.336 37.0374 152.673 37.0374V37.581H145.398V37.0374C146.323 37.0374 146.744 36.4577 146.744 35.2619V29.138C146.744 27.9784 146.281 27.3624 145.398 27.3624V26.8188H152.673V27.3624C152.168 27.3624 151.832 27.5073 151.705 27.8335C151.579 28.1596 151.495 28.5944 151.495 29.1017V31.1672H151.621Z" fill="#109D59"/>
<path d="M163.648 36.7112C162.891 36.2763 162.302 35.6603 161.882 34.8994C161.461 34.1384 161.293 33.305 161.293 32.4353C161.293 31.2033 161.629 30.1524 162.344 29.2465C163.059 28.3406 163.984 27.6884 165.161 27.2173C166.339 26.7462 167.642 26.5288 169.03 26.5288C170.081 26.5288 171.006 26.6375 171.889 26.8912C172.772 27.1448 173.529 27.4709 174.243 27.9783C174.958 28.4856 175.463 29.0653 175.799 29.7538C176.136 30.4423 176.346 31.2757 176.346 32.2179C176.346 33.1238 176.136 33.921 175.757 34.6457C175.379 35.3704 174.79 35.9502 174.075 36.4213C173.36 36.8923 172.562 37.2547 171.637 37.4721C170.712 37.6895 169.786 37.8345 168.777 37.8345C166.675 37.8345 164.951 37.4721 163.648 36.7112ZM169.072 36.1676C169.45 36.1676 169.786 36.0589 170.081 35.8053C170.375 35.5516 170.627 35.2617 170.796 34.9718C171.132 34.3196 171.3 33.4862 171.3 32.544C171.3 31.2395 171.09 30.2249 170.669 29.4639C170.459 29.1016 170.207 28.8117 169.871 28.558C169.534 28.3044 169.156 28.1957 168.735 28.1957C167.852 28.1957 167.222 28.558 166.843 29.319C166.507 30.0437 166.297 30.8771 166.297 31.783C166.297 32.7977 166.507 33.776 166.927 34.7544C167.348 35.6965 168.063 36.1676 169.072 36.1676Z" fill="#109D59"/>
<path d="M180.718 34.6102C180.718 35.1175 180.76 35.5161 180.802 35.8422C180.844 36.1684 180.97 36.422 181.181 36.6394C181.391 36.8568 181.727 36.9656 182.148 37.0018V37.5453H177.396V37.0018C177.817 36.9656 178.153 36.8206 178.321 36.6757C178.49 36.5307 178.616 36.2771 178.7 35.9872C178.784 35.6973 178.784 35.2987 178.784 34.7551V29.7908C178.784 29.2835 178.742 28.8487 178.7 28.5588C178.658 28.2689 178.532 28.0152 178.321 27.7616C178.111 27.5079 177.817 27.3992 177.396 27.363V26.8194H185.049V27.363C184.713 27.363 184.502 27.5079 184.502 27.834C184.502 28.0877 184.671 28.3776 184.965 28.74L186.521 30.5518L188.076 28.74C188.413 28.3414 188.539 28.0152 188.539 27.7253C188.539 27.4717 188.413 27.3267 188.161 27.3267V26.7832H194.93L194.972 27.3267C194.552 27.3992 194.215 27.5079 194.047 27.6891C193.879 27.8703 193.711 28.0877 193.669 28.3776C193.627 28.6675 193.585 29.0661 193.585 29.5734V34.5377C193.585 35.1175 193.627 35.5886 193.669 35.8785C193.711 36.1683 193.837 36.422 194.047 36.6394C194.257 36.8568 194.552 36.9293 194.972 36.9293V37.4729H187.74V36.9293C188.245 36.8931 188.581 36.7481 188.707 36.4945C188.833 36.2408 188.917 35.8785 188.917 35.3712V34.6464V30.1894L184.713 35.045L180.718 30.1894V34.6102Z" fill="#109D59"/>
<path d="M207.67 37.8714C207.418 37.7265 207.04 37.6178 206.619 37.6178C206.535 37.6178 206.115 37.654 205.4 37.7265L203.928 37.7989C202.877 37.7989 201.868 37.6902 200.943 37.4366C200.018 37.1829 199.177 36.8206 198.42 36.3132C197.663 35.8059 197.117 35.1899 196.696 34.429C196.276 33.668 196.065 32.8346 196.065 31.8924C196.065 31.0228 196.234 30.2618 196.612 29.5733C196.99 28.8849 197.495 28.3413 198.126 27.9065C198.756 27.4716 199.513 27.1455 200.396 26.8919C201.279 26.6382 202.162 26.5657 203.129 26.5657L205.736 26.7469C205.82 26.7469 205.904 26.7832 206.073 26.7832C206.241 26.7832 206.367 26.8194 206.451 26.8194C206.872 26.8194 207.208 26.7107 207.376 26.457L208.511 30.7691L207.965 30.8778C207.839 30.443 207.628 30.0082 207.292 29.5733C206.956 29.1385 206.577 28.8124 206.073 28.5587C205.568 28.3051 205.106 28.1601 204.559 28.1601C204.138 28.1601 203.718 28.2326 203.298 28.4138C202.877 28.595 202.499 28.8124 202.246 29.066C201.868 29.3921 201.574 29.827 201.363 30.2981C201.153 30.7691 201.069 31.2764 201.069 31.7837C201.069 32.4722 201.237 33.1245 201.532 33.7767C201.826 34.429 202.33 34.9725 202.919 35.4073C203.508 35.8422 204.223 36.0234 205.021 36.0234C205.862 36.0234 206.619 35.8059 207.292 35.4073C207.965 35.0087 208.511 34.5014 208.89 33.8492L209.352 34.0304L207.67 37.8714Z" fill="#109D59"/>
<path d="M218.854 34.7183C218.854 35.5517 218.938 36.1315 219.064 36.4938C219.191 36.8562 219.527 37.0012 220.116 37.0012V37.5447H212.799V37.0012C213.388 37.0012 213.766 36.82 213.935 36.4576C214.103 36.0952 214.145 35.5155 214.145 34.7183V28.1958C213.136 28.1958 212.253 28.4857 211.496 29.0292C210.739 29.5727 210.235 30.3337 209.898 31.3121L209.352 31.2396L210.571 26.4927C210.739 26.7463 211.16 26.855 211.832 26.855C211.916 26.855 212.085 26.855 212.253 26.855C212.421 26.855 212.547 26.855 212.589 26.855H220.2C220.242 26.855 220.368 26.855 220.494 26.855C220.62 26.855 220.788 26.855 220.872 26.855C221.713 26.855 222.218 26.7463 222.428 26.4927L223.606 31.2396L223.059 31.3121C222.596 30.2975 222.05 29.5365 221.377 28.993C220.704 28.4494 219.863 28.1958 218.854 28.1958V34.7183Z" fill="#109D59"/>
<path d="M237.23 28.9561C237.23 29.4272 236.978 29.8258 236.432 30.1881C235.885 30.5505 235.254 30.8404 234.539 31.0578C235.801 31.2027 236.852 31.5651 237.693 32.0724C238.534 32.5797 238.912 33.232 238.912 33.9929C238.912 34.7901 238.618 35.4424 237.987 35.9859C237.357 36.5294 236.558 36.928 235.506 37.1817C234.455 37.4353 233.32 37.5803 232.101 37.5803H223.817V37.0367C224.406 37.0005 224.784 36.8193 224.953 36.457C225.121 36.0946 225.205 35.5511 225.205 34.8263V29.6808C225.205 28.9561 225.121 28.4125 224.953 28.0139C224.784 27.6153 224.406 27.4342 223.817 27.4342V26.8906H231.596C232.689 26.8906 233.614 26.9269 234.329 26.9993C235.044 27.0718 235.759 27.253 236.305 27.5791C236.852 27.9052 237.23 28.3038 237.23 28.9561ZM232.353 29.3909C232.353 29.0286 232.269 28.7024 232.059 28.4488C231.848 28.1951 231.554 28.0864 231.092 28.0864C230.671 28.0864 230.377 28.1951 230.167 28.3763C229.956 28.5575 229.872 28.9923 229.872 29.6446V31.1303L230.839 30.9128C231.26 30.8041 231.638 30.6229 231.89 30.3331C232.143 30.0432 232.353 29.7171 232.353 29.3909ZM229.914 32.5072V34.7176C229.914 35.3337 230.04 35.7685 230.251 35.9859C230.461 36.2033 230.881 36.312 231.47 36.312C232.227 36.312 232.815 36.1308 233.236 35.7322C233.656 35.3336 233.909 34.8263 233.909 34.1741C233.909 33.5943 233.741 33.1232 233.446 32.7247C233.152 32.3261 232.731 32.0724 232.227 31.8912L229.914 32.5072Z" fill="#109D59"/>
<path d="M247.951 30.2253C247.951 29.5006 247.825 28.9933 247.615 28.7758C247.194 28.4135 246.564 28.1961 245.681 28.1961C244.672 28.1961 243.789 28.4497 242.99 28.9208C242.191 29.3918 241.602 30.0441 241.224 30.8413L240.719 30.8051L241.224 26.9278C241.518 27.1814 241.77 27.2902 242.065 27.2902C242.275 27.2902 242.611 27.2539 243.074 27.1452C244.083 26.964 244.924 26.8191 245.597 26.7104C246.269 26.6017 246.984 26.5654 247.741 26.5654C249.507 26.5654 250.768 26.8191 251.525 27.3626C252.072 27.725 252.408 28.1598 252.534 28.6671C252.661 29.2107 252.745 29.8629 252.745 30.6963V34.6461V35.1534C252.745 35.7332 252.829 36.168 252.997 36.4941C253.165 36.8202 253.544 37.0014 254.132 37.0739V37.6175H248.876C248.456 37.2913 248.162 36.784 247.993 36.168C247.573 36.7116 246.9 37.1464 246.017 37.4363C245.092 37.7624 244.251 37.9073 243.41 37.9073C242.401 37.9073 241.518 37.6537 240.761 37.1826C240.004 36.7115 239.626 36.0231 239.626 35.1896C239.626 34.3924 239.92 33.7039 240.467 33.1604C241.014 32.5806 241.728 32.1458 242.569 31.7834C243.41 31.4211 244.293 31.1674 245.218 30.9862C246.143 30.8051 247.068 30.6239 248.035 30.5152V30.2253H247.951ZM245.807 32.2545C245.386 32.4719 245.05 32.7618 244.714 33.1604C244.377 33.559 244.251 33.9214 244.251 34.2837C244.251 34.6461 244.377 34.936 244.63 35.2259C244.882 35.5157 245.218 35.6245 245.597 35.6245C246.522 35.6245 247.11 35.1896 247.447 34.3562C247.783 33.5228 247.951 32.5806 247.951 31.6022C247.026 31.7472 246.311 31.9646 245.807 32.2545Z" fill="#E49306"/>
<path d="M0 52.6924V51.9677H0.168186C0.294327 51.9677 0.420472 51.9677 0.546613 51.9315C0.672754 51.8953 0.798897 51.859 0.882991 51.8228C1.00913 51.7503 1.09323 51.6778 1.17732 51.5691C1.26141 51.4604 1.30346 51.3155 1.30346 51.098V47.0758C1.30346 46.8947 1.26141 46.7135 1.17732 46.6048C1.09323 46.4961 1.00913 46.3874 0.882991 46.3511C0.75685 46.2786 0.672754 46.2424 0.546613 46.2424C0.420472 46.2062 0.294327 46.2062 0.168186 46.2062H0V45.4814H4.07856L6.39115 49.9747L8.74579 45.4814H12.9084V46.2062H12.6982C12.53 46.2062 12.3618 46.2062 12.1936 46.2424C12.0255 46.2787 11.8993 46.3149 11.7732 46.3511C11.647 46.4236 11.5629 46.4961 11.4789 46.641C11.3948 46.7497 11.3948 46.9309 11.3948 47.1121V51.098C11.3948 51.2792 11.4368 51.4604 11.4789 51.5691C11.5629 51.6778 11.647 51.7865 11.7732 51.859C11.8993 51.9315 12.0255 51.9677 12.1936 51.9677C12.3618 52.004 12.53 52.0039 12.6982 52.0039H12.9084V52.7287H7.8628V52.0039H7.90485C8.07304 52.0039 8.24123 52.004 8.40941 51.9677C8.5776 51.9315 8.70374 51.8953 8.82988 51.859C8.95603 51.7865 9.04012 51.7141 9.12421 51.5691C9.20831 51.4604 9.2083 51.2792 9.2083 51.098V46.9671H9.08217L6.05477 52.7287H5.33998L2.39668 46.9671H2.27054V51.098C2.27054 51.2792 2.31259 51.4604 2.35464 51.5691C2.43873 51.6778 2.52283 51.7865 2.64897 51.859C2.77511 51.9315 2.90125 51.9677 3.06944 51.9677C3.23763 52.004 3.40581 52.0039 3.574 52.0039H3.61605V52.7287H0V52.6924Z" fill="#E49306"/>
<path d="M17.6604 46.1694C17.4501 46.1694 17.282 46.2056 17.1558 46.2781C17.0297 46.3505 16.9035 46.4592 16.8194 46.568C16.7353 46.7129 16.6933 46.8579 16.6513 47.039C16.6092 47.2202 16.6092 47.4014 16.6092 47.6188C15.8944 47.6188 15.3898 47.5463 15.0114 47.4014C14.675 47.2565 14.4648 47.039 14.4648 46.7129C14.4648 46.4593 14.5489 46.2418 14.7171 46.0969C14.8853 45.9157 15.1376 45.7708 15.3898 45.662C15.6842 45.5533 16.0205 45.4809 16.399 45.4084C16.7774 45.3722 17.1979 45.3359 17.6604 45.3359C18.207 45.3359 18.6695 45.3722 19.09 45.4446C19.5104 45.5171 19.8468 45.662 20.0991 45.8432C20.3514 46.0244 20.5616 46.2418 20.7298 46.5317C20.856 46.8216 20.9401 47.184 20.9401 47.5826V50.9888C20.9401 51.1699 20.94 51.3149 20.9821 51.4598C21.0241 51.5685 21.0662 51.6773 21.1503 51.7497C21.2344 51.8222 21.3185 51.8584 21.4446 51.8947C21.5708 51.9309 21.6969 51.9309 21.8651 51.9309H21.9071V52.6556H19.0059L18.6695 51.7135H18.5434C18.3752 51.8947 18.207 52.0396 18.0388 52.1845C17.8706 52.3295 17.7445 52.4382 17.5342 52.5107C17.366 52.5832 17.1558 52.6556 16.9456 52.6919C16.7353 52.7281 16.4831 52.7643 16.1887 52.7643C15.8524 52.7643 15.516 52.7281 15.2216 52.6194C14.9273 52.5469 14.675 52.402 14.4648 52.2208C14.2546 52.0396 14.0864 51.8222 13.9602 51.5323C13.8341 51.2424 13.75 50.9525 13.75 50.5539C13.75 49.8292 14.0443 49.2857 14.633 48.9233C15.2217 48.5609 16.1046 48.3798 17.2399 48.3435L18.5013 48.3073V47.5826C18.5013 47.3652 18.5013 47.1477 18.4593 46.9666C18.4593 46.7854 18.3752 46.6042 18.3331 46.4955C18.249 46.3506 18.1649 46.2418 18.0388 46.1694C18.0388 46.2056 17.8706 46.1694 17.6604 46.1694ZM16.2728 50.6989C16.2728 51.0975 16.3569 51.3874 16.4831 51.5686C16.6092 51.7497 16.8615 51.8584 17.1558 51.8584C17.3661 51.8584 17.5763 51.8222 17.7445 51.7497C17.9127 51.6773 18.0809 51.5685 18.207 51.4236C18.3331 51.2787 18.4172 51.0975 18.5013 50.8801C18.5854 50.6626 18.5854 50.4452 18.5854 50.1553V49.1407L17.8706 49.177C17.5763 49.177 17.282 49.2494 17.0717 49.3219C16.8615 49.3944 16.6933 49.5031 16.5672 49.6118C16.441 49.7567 16.3569 49.9017 16.2728 50.0829C16.3149 50.2278 16.2728 50.4452 16.2728 50.6989Z" fill="#E49306"/>
<path d="M26.4052 51.098C26.4052 51.2792 26.4473 51.4604 26.4893 51.5691C26.5734 51.6778 26.6575 51.7865 26.7416 51.8228C26.8257 51.8952 26.9518 51.9315 27.078 51.9315C27.2041 51.9677 27.3303 51.9677 27.4144 51.9677H27.7507V52.6924H22.7051V51.9677H22.8733C22.9994 51.9677 23.1256 51.9677 23.2517 51.9315C23.3778 51.8953 23.504 51.859 23.5881 51.8228C23.7142 51.7503 23.7983 51.6778 23.8824 51.5691C23.9665 51.4604 24.0085 51.3155 24.0085 51.098V47.0758C24.0085 46.8947 23.9665 46.7135 23.8824 46.6048C23.7983 46.4961 23.7142 46.3874 23.5881 46.3511C23.4619 46.2786 23.3778 46.2424 23.2517 46.2424C23.1256 46.2062 22.9994 46.2062 22.8733 46.2062H22.7051V45.4814H30.0213V47.7643H28.928L28.844 47.1845C28.8019 46.9671 28.7599 46.8222 28.7178 46.6773C28.6758 46.5685 28.5917 46.4598 28.5076 46.3873C28.4235 46.3149 28.3394 46.2786 28.1712 46.2786C28.0451 46.2786 27.8769 46.2424 27.7087 46.2424H26.2791V51.098H26.4052Z" fill="#E49306"/>
<path d="M34.8996 46.1694C34.6894 46.1694 34.5212 46.2056 34.3951 46.2781C34.2689 46.3505 34.1428 46.4592 34.0587 46.568C33.9746 46.7129 33.9325 46.8579 33.8905 47.039C33.8485 47.2202 33.8485 47.4014 33.8485 47.6188C33.1337 47.6188 32.6291 47.5463 32.2507 47.4014C31.9143 47.2565 31.7041 47.039 31.7041 46.7129C31.7041 46.4593 31.7881 46.2418 31.9563 46.0969C32.1245 45.9157 32.3768 45.7708 32.6291 45.662C32.9234 45.5533 33.2598 45.4809 33.6382 45.4084C34.0166 45.3722 34.4371 45.3359 34.8996 45.3359C35.4462 45.3359 35.9088 45.3722 36.3292 45.4446C36.7497 45.5171 37.0861 45.662 37.3384 45.8432C37.5906 46.0244 37.8009 46.2418 37.9691 46.5317C38.0952 46.8216 38.1793 47.184 38.1793 47.5826V50.9888C38.1793 51.1699 38.1793 51.3149 38.2213 51.4598C38.2634 51.5685 38.3054 51.6773 38.3895 51.7497C38.4736 51.8222 38.5577 51.8584 38.6839 51.8947C38.81 51.9309 38.9361 51.9309 39.1043 51.9309H39.1464V52.6556H36.2451L35.9088 51.7135H35.7826C35.6144 51.8947 35.4462 52.0396 35.2781 52.1845C35.1099 52.3295 34.9837 52.4382 34.7735 52.5107C34.6053 52.5832 34.3951 52.6556 34.1848 52.6919C33.9746 52.7281 33.7223 52.7643 33.428 52.7643C33.0916 52.7643 32.7552 52.7281 32.4609 52.6194C32.1666 52.5469 31.9143 52.402 31.7041 52.2208C31.4938 52.0396 31.3256 51.8222 31.1995 51.5323C31.0734 51.2424 30.9893 50.9525 30.9893 50.5539C30.9893 49.8292 31.2836 49.2857 31.8722 48.9233C32.4609 48.5609 33.3439 48.3798 34.4792 48.3435L35.7406 48.3073V47.5826C35.7406 47.3652 35.7406 47.1477 35.6985 46.9666C35.6985 46.7854 35.6144 46.6042 35.5724 46.4955C35.4883 46.3506 35.4042 46.2418 35.2781 46.1694C35.2781 46.2056 35.1099 46.1694 34.8996 46.1694ZM33.5121 50.6989C33.5121 51.0975 33.5962 51.3874 33.7223 51.5686C33.8485 51.7497 34.1007 51.8584 34.3951 51.8584C34.6053 51.8584 34.8155 51.8222 34.9837 51.7497C35.1519 51.6773 35.3201 51.5685 35.4462 51.4236C35.5724 51.2787 35.6565 51.0975 35.7406 50.8801C35.8247 50.6626 35.8247 50.4452 35.8247 50.1553V49.1407L35.1099 49.177C34.8155 49.177 34.5212 49.2494 34.311 49.3219C34.1007 49.3944 33.9325 49.5031 33.8064 49.6118C33.6803 49.7567 33.5962 49.9017 33.5121 50.0829C33.5541 50.2278 33.5121 50.4452 33.5121 50.6989Z" fill="#E49306"/>
<path d="M43.5198 52.0756C43.7721 52.0756 43.9823 52.0394 44.1926 51.9669C44.3607 51.8945 44.5289 51.7858 44.6551 51.677C44.7812 51.5683 44.8653 51.4234 44.9073 51.2422C44.9494 51.061 44.9914 50.8798 44.9914 50.6987C44.9914 50.2638 44.8653 49.9377 44.571 49.7203C44.2766 49.5029 43.8141 49.3942 43.1834 49.3942H42.1323V48.5245H43.1834C43.4778 48.5245 43.73 48.4883 43.8982 48.4158C44.1085 48.3433 44.2346 48.2709 44.3607 48.1259C44.4869 48.0172 44.571 47.8722 44.613 47.7273C44.6551 47.5824 44.6971 47.4012 44.6971 47.2562C44.6971 47.1113 44.6971 46.9301 44.6551 46.8214C44.613 46.6765 44.571 46.5677 44.4869 46.459C44.4028 46.3503 44.2766 46.2779 44.1505 46.2054C44.0244 46.1329 43.8562 46.1329 43.6459 46.1329C43.3937 46.1329 43.2255 46.1691 43.0573 46.2779C42.8891 46.3503 42.763 46.4953 42.6789 46.6402C42.5948 46.7852 42.5107 46.9664 42.4686 47.1475C42.4266 47.3287 42.3845 47.5461 42.3845 47.7273C42.0481 47.7273 41.7959 47.6911 41.5856 47.6548C41.3754 47.6186 41.2072 47.5461 41.0811 47.4736C40.9549 47.4012 40.8708 47.2925 40.8288 47.1838C40.7867 47.0751 40.7447 46.9301 40.7447 46.7852C40.7447 46.6402 40.7867 46.4591 40.9129 46.3141C40.997 46.1329 41.1652 45.988 41.4174 45.8793C41.6277 45.7343 41.9641 45.6256 42.3425 45.5531C42.7209 45.4807 43.1834 45.4082 43.7721 45.4082C44.3187 45.4082 44.7812 45.4444 45.2017 45.5169C45.6222 45.5894 45.9585 45.6981 46.2529 45.843C46.5472 45.988 46.7574 46.1691 46.9256 46.3866C47.0938 46.604 47.1358 46.8576 47.1358 47.1475C47.1358 47.3649 47.0938 47.5461 47.0097 47.7636C46.9256 47.9447 46.7995 48.1259 46.6733 48.2708C46.5051 48.4158 46.337 48.5607 46.1267 48.6695C45.9165 48.7782 45.6642 48.8869 45.3699 48.9231V48.9956C46.0426 49.1043 46.5472 49.2855 46.8836 49.5391C47.262 49.7928 47.4302 50.1914 47.4302 50.6624C47.4302 50.9886 47.3461 51.2785 47.1779 51.5683C47.0097 51.822 46.7574 52.0756 46.4631 52.2568C46.1267 52.438 45.7483 52.5829 45.2437 52.6917C44.7812 52.8004 44.1926 52.8366 43.5618 52.8366C42.9732 52.8366 42.4266 52.8004 42.0482 52.7279C41.6277 52.6554 41.2913 52.5467 41.039 52.4018C40.7867 52.2568 40.6185 52.1119 40.4924 51.9307C40.3663 51.7495 40.3242 51.5683 40.3242 51.3509C40.3242 51.0248 40.4504 50.7711 40.7026 50.59C40.9549 50.4088 41.3334 50.3001 41.88 50.3001C41.88 50.5537 41.922 50.8074 42.0061 51.0248C42.0902 51.2422 42.1743 51.4234 42.3425 51.6046C42.4686 51.7858 42.6789 51.8944 42.8891 52.0032C43.0152 52.0394 43.2675 52.0756 43.5198 52.0756Z" fill="#E49306"/>
<path d="M57.1835 51.098C57.1835 51.2792 57.2255 51.4604 57.3096 51.5691C57.3937 51.6778 57.4778 51.7865 57.6039 51.8228C57.7301 51.8952 57.8142 51.9315 57.9823 51.9315C58.1085 51.9677 58.2346 51.9677 58.3608 51.9677H58.529V52.6924H53.8197V51.9677H53.8617C53.9879 51.9677 54.072 51.9677 54.1981 51.9315C54.3243 51.8953 54.4084 51.859 54.5345 51.8228C54.6186 51.7503 54.7027 51.6778 54.7868 51.5691C54.8709 51.4604 54.8709 51.3155 54.8709 51.098V48.1992L51.9696 50.9531V51.098C51.9696 51.2792 52.0117 51.4604 52.0537 51.5691C52.1378 51.6778 52.2219 51.7865 52.306 51.8228C52.3901 51.8952 52.5162 51.9315 52.6424 51.9315C52.7685 51.9677 52.8947 51.9677 52.9788 51.9677H53.0208V52.6924H48.3115V51.9677H48.4797C48.6059 51.9677 48.732 51.9677 48.8581 51.9315C48.9843 51.8953 49.1104 51.859 49.1945 51.8228C49.3207 51.7503 49.4048 51.6778 49.4888 51.5691C49.5729 51.4604 49.615 51.3155 49.615 51.098V47.0758C49.615 46.8947 49.5729 46.7135 49.4888 46.6048C49.4048 46.4961 49.3207 46.3874 49.1945 46.3511C49.0684 46.2786 48.9843 46.2424 48.8581 46.2424C48.732 46.2062 48.6059 46.2062 48.4797 46.2062H48.3115V45.4814H53.0208V46.2062H52.9788C52.8526 46.2062 52.7685 46.2062 52.6424 46.2424C52.5162 46.2787 52.4321 46.3149 52.306 46.3511C52.2219 46.4236 52.1378 46.4961 52.0537 46.6048C51.9696 46.7135 51.9696 46.8584 51.9696 47.0758V49.9385L54.8709 47.1845V47.0758C54.8709 46.8947 54.8288 46.7135 54.7868 46.6048C54.7027 46.4961 54.6186 46.3874 54.5345 46.3511C54.4504 46.2786 54.3243 46.2424 54.1981 46.2424C54.072 46.2062 53.9458 46.2062 53.8617 46.2062H53.8197V45.4814H58.529V46.2062H58.3608C58.2346 46.2062 58.1085 46.2062 57.9823 46.2424C57.8562 46.2787 57.7301 46.3149 57.6039 46.3511C57.4778 46.4236 57.3937 46.4961 57.3096 46.6048C57.2255 46.7135 57.1835 46.8584 57.1835 47.0758V51.098Z" fill="#E49306"/>
<path d="M67.9482 51.098C67.9482 51.2792 67.9902 51.4604 68.0743 51.5691C68.1584 51.6778 68.2425 51.7865 68.3686 51.8228C68.4948 51.8952 68.5789 51.9315 68.7471 51.9315C68.8732 51.9677 68.9993 51.9677 69.1255 51.9677H69.2937V52.6924H64.5423V51.9677H64.5844C64.7105 51.9677 64.7946 51.9677 64.9208 51.9315C65.0469 51.8953 65.131 51.859 65.2572 51.8228C65.3412 51.7503 65.4253 51.6778 65.5094 51.5691C65.5935 51.4604 65.5935 51.3155 65.5935 51.098V49.3587H62.6923V51.098C62.6923 51.2792 62.7343 51.4604 62.7764 51.5691C62.8605 51.6778 62.9446 51.7865 63.0287 51.8228C63.1127 51.8952 63.2389 51.9315 63.365 51.9315C63.4912 51.9677 63.6173 51.9677 63.7014 51.9677H63.7435V52.6924H59.0342V51.9677H59.2024C59.3285 51.9677 59.4547 51.9677 59.5808 51.9315C59.7069 51.8953 59.8331 51.859 59.9172 51.8228C60.0433 51.7503 60.1274 51.6778 60.2115 51.5691C60.2956 51.4604 60.3376 51.3155 60.3376 51.098V47.0758C60.3376 46.8947 60.2956 46.7135 60.2115 46.6048C60.1274 46.4961 60.0433 46.3874 59.9172 46.3511C59.791 46.2786 59.7069 46.2424 59.5808 46.2424C59.4547 46.2062 59.3285 46.2062 59.2024 46.2062H59.0342V45.4814H63.7435V46.2062H63.7014C63.5753 46.2062 63.4912 46.2062 63.365 46.2424C63.2389 46.2787 63.1548 46.3149 63.0287 46.3511C62.9446 46.4236 62.8605 46.4961 62.7764 46.6048C62.6923 46.7135 62.6923 46.8584 62.6923 47.0758V48.5978H65.5935V47.0758C65.5935 46.8947 65.5515 46.7135 65.5094 46.6048C65.4253 46.4961 65.3412 46.3874 65.2572 46.3511C65.1731 46.2786 65.0469 46.2424 64.9208 46.2424C64.7946 46.2062 64.6685 46.2062 64.5844 46.2062H64.5423V45.4814H69.2516V46.2062H69.0834C68.9573 46.2062 68.8311 46.2062 68.705 46.2424C68.5789 46.2787 68.4527 46.3149 68.3266 46.3511C68.2004 46.4236 68.1163 46.4961 68.0322 46.6048C67.9482 46.7135 67.9061 46.8584 67.9061 47.0758V51.098H67.9482Z" fill="#E49306"/>
<path d="M82.7489 51.098C82.7489 51.2792 82.7909 51.4604 82.875 51.5691C82.9591 51.6778 83.0432 51.7865 83.1693 51.8228C83.2955 51.8952 83.3796 51.9315 83.5478 51.9315C83.6739 51.9677 83.8001 51.9677 83.9262 51.9677H84.0944V52.6924H79.3851V51.9677H79.4272C79.5533 51.9677 79.6374 51.9677 79.7635 51.9315C79.8897 51.8953 79.9738 51.859 80.0999 51.8228C80.184 51.7503 80.2681 51.6778 80.3522 51.5691C80.4363 51.4604 80.4363 51.3155 80.4363 51.098V49.3587H77.535V51.098C77.535 51.2792 77.5771 51.4604 77.6191 51.5691C77.7032 51.6778 77.7873 51.7865 77.8714 51.8228C77.9555 51.8952 78.0817 51.9315 78.2078 51.9315C78.3339 51.9677 78.4601 51.9677 78.5442 51.9677H78.5862V52.6924H73.877V51.9677H74.0451C74.1713 51.9677 74.2974 51.9677 74.4236 51.9315C74.5497 51.8953 74.6758 51.859 74.7599 51.8228C74.8861 51.7503 74.9702 51.6778 75.0543 51.5691C75.1384 51.4604 75.1804 51.3155 75.1804 51.098V47.0758C75.1804 46.8947 75.1384 46.7135 75.0543 46.6048C74.9702 46.4961 74.8861 46.3874 74.7599 46.3511C74.6338 46.2786 74.5497 46.2424 74.4236 46.2424C74.2974 46.2062 74.1713 46.2062 74.0451 46.2062H73.877V45.4814H78.5862V46.2062H78.5442C78.418 46.2062 78.3339 46.2062 78.2078 46.2424C78.0817 46.2787 77.9976 46.3149 77.8714 46.3511C77.7873 46.4236 77.7032 46.4961 77.6191 46.6048C77.535 46.7135 77.535 46.8584 77.535 47.0758V48.5978H80.4363V47.0758C80.4363 46.8947 80.3942 46.7135 80.3522 46.6048C80.2681 46.4961 80.184 46.3874 80.0999 46.3511C80.0158 46.2786 79.8897 46.2424 79.7635 46.2424C79.6374 46.2062 79.5113 46.2062 79.4272 46.2062H79.3851V45.4814H84.0944V46.2062H83.8841C83.758 46.2062 83.6319 46.2062 83.5057 46.2424C83.3796 46.2787 83.2534 46.3149 83.1273 46.3511C83.0012 46.4236 82.9171 46.4961 82.833 46.6048C82.7489 46.7135 82.7068 46.8584 82.7068 47.0758V51.098H82.7489Z" fill="#E49306"/>
<path d="M88.8038 46.1694C88.5936 46.1694 88.4254 46.2056 88.2993 46.2781C88.1731 46.3505 88.047 46.4592 87.9629 46.568C87.8788 46.7129 87.8367 46.8579 87.7947 47.039C87.7526 47.2202 87.7526 47.4014 87.7526 47.6188C87.0378 47.6188 86.5333 47.5463 86.1549 47.4014C85.8185 47.2565 85.6082 47.039 85.6082 46.7129C85.6082 46.4593 85.6923 46.2418 85.8605 46.0969C86.0287 45.9157 86.281 45.7708 86.5333 45.662C86.8276 45.5533 87.164 45.4809 87.5424 45.4084C87.9208 45.3722 88.3413 45.3359 88.8038 45.3359C89.3504 45.3359 89.813 45.3722 90.2334 45.4446C90.6539 45.5171 90.9903 45.662 91.2425 45.8432C91.4948 46.0244 91.7051 46.2418 91.8733 46.5317C91.9994 46.8216 92.0835 47.184 92.0835 47.5826V50.9888C92.0835 51.1699 92.0835 51.3149 92.1255 51.4598C92.1676 51.5685 92.2096 51.6773 92.2937 51.7497C92.3778 51.8222 92.4619 51.8584 92.5881 51.8947C92.7142 51.9309 92.8403 51.9309 93.0085 51.9309H93.0506V52.6556H90.1493L89.813 51.7135H89.7709C89.6027 51.8947 89.4345 52.0396 89.2663 52.1845C89.0981 52.3295 88.972 52.4382 88.7618 52.5107C88.5936 52.5832 88.3834 52.6556 88.1731 52.6919C87.9629 52.7281 87.7106 52.7643 87.4163 52.7643C87.0799 52.7643 86.7435 52.7281 86.4492 52.6194C86.1549 52.5469 85.9026 52.402 85.6923 52.2208C85.4821 52.0396 85.3139 51.8222 85.1878 51.5323C85.0616 51.2424 84.9775 50.9525 84.9775 50.5539C84.9775 49.8292 85.2719 49.2857 85.8605 48.9233C86.4492 48.5609 87.3322 48.3798 88.4674 48.3435L89.7289 48.3073V47.5826C89.7289 47.3652 89.7288 47.1477 89.6868 46.9666C89.6868 46.7854 89.6027 46.6042 89.5607 46.4955C89.4766 46.3506 89.3925 46.2418 89.2663 46.1694C89.2243 46.2056 89.0141 46.1694 88.8038 46.1694ZM87.4163 50.6989C87.4163 51.0975 87.5004 51.3874 87.6265 51.5686C87.7526 51.7497 88.0049 51.8584 88.2993 51.8584C88.5095 51.8584 88.7197 51.8222 88.8879 51.7497C89.0561 51.6773 89.2243 51.5685 89.3504 51.4236C89.4766 51.2787 89.5607 51.0975 89.6448 50.8801C89.7289 50.6626 89.7289 50.4452 89.7289 50.1553V49.1407L89.0141 49.177C88.7197 49.177 88.4254 49.2494 88.2152 49.3219C88.0049 49.3944 87.8367 49.5031 87.7106 49.6118C87.5845 49.7567 87.5004 49.9017 87.4163 50.0829C87.4583 50.2278 87.4163 50.4452 87.4163 50.6989Z" fill="#E49306"/>
<path d="M98.2638 52.8372C97.6752 52.8372 97.1706 52.7647 96.7081 52.656C96.2456 52.5473 95.8251 52.3299 95.4887 52.04C95.1524 51.7501 94.9001 51.3515 94.6898 50.8805C94.5217 50.4094 94.3955 49.8296 94.3955 49.1411C94.3955 48.4164 94.4796 47.8004 94.6898 47.3293C94.9001 46.8582 95.1524 46.4596 95.4887 46.1698C95.8251 45.8799 96.2456 45.6624 96.7081 45.5537C97.1706 45.445 97.6752 45.3726 98.2218 45.3726C98.7264 45.3726 99.1468 45.4088 99.5673 45.4813C99.9457 45.5537 100.282 45.6625 100.534 45.7712C100.787 45.9161 100.997 46.061 101.123 46.206C101.249 46.3872 101.333 46.5683 101.333 46.7495C101.333 46.8945 101.291 47.0394 101.249 47.1844C101.207 47.3293 101.081 47.438 100.955 47.5467C100.787 47.6554 100.618 47.7279 100.324 47.8004C100.072 47.8729 99.7355 47.9091 99.315 47.9091C99.315 47.6917 99.315 47.4743 99.273 47.2568C99.2309 47.0394 99.1889 46.8582 99.1048 46.7133C99.0207 46.5684 98.9366 46.4234 98.8105 46.3509C98.6843 46.2422 98.5161 46.206 98.3059 46.206C98.0956 46.206 97.8854 46.2422 97.6752 46.3509C97.507 46.4596 97.3388 46.6046 97.2127 46.822C97.0865 47.0394 97.0024 47.3655 96.9183 47.7279C96.8342 48.0903 96.8342 48.5976 96.8342 49.1411C96.8342 50.047 96.9604 50.7355 97.2547 51.1703C97.549 51.6052 98.0116 51.8588 98.6843 51.8588C98.9366 51.8588 99.1889 51.8226 99.4412 51.7864C99.6934 51.7139 99.9037 51.6414 100.072 51.5689C100.282 51.4602 100.45 51.3515 100.576 51.2066C100.703 51.0616 100.829 50.9167 100.913 50.7717C101.039 50.8442 101.123 50.9167 101.207 51.0254C101.249 51.1341 101.291 51.2428 101.291 51.3878C101.291 51.5689 101.249 51.7139 101.123 51.8951C100.997 52.0762 100.829 52.2212 100.576 52.3661C100.324 52.5111 100.03 52.6198 99.6514 52.7285C99.2309 52.801 98.7684 52.8372 98.2638 52.8372Z" fill="#E49306"/>
<path d="M110.289 45.5176L110.373 47.8004H109.28L109.238 47.3656C109.196 47.1482 109.154 46.967 109.112 46.8583C109.07 46.7134 109.028 46.6047 108.944 46.5322C108.86 46.4597 108.775 46.3872 108.691 46.351C108.607 46.3148 108.481 46.3148 108.313 46.3148H107.43V51.1342C107.43 51.3154 107.472 51.4603 107.514 51.569C107.556 51.6777 107.64 51.7864 107.724 51.8589C107.808 51.9314 107.934 51.9676 108.061 52.0038C108.187 52.0401 108.313 52.0401 108.439 52.0401H108.607V52.7648H103.73V52.0401H103.898C104.066 52.0401 104.192 52.0401 104.318 52.0038C104.445 51.9676 104.571 51.9314 104.655 51.8589C104.739 51.7864 104.823 51.714 104.907 51.569C104.949 51.4603 104.991 51.3154 104.991 51.1342V46.3148H104.066C103.94 46.3148 103.814 46.3148 103.688 46.351C103.604 46.3872 103.52 46.4597 103.435 46.5322C103.351 46.6047 103.309 46.7134 103.267 46.8583C103.225 47.0033 103.183 47.1844 103.141 47.3656L103.099 47.8004H102.006L102.09 45.5176H110.289Z" fill="#E49306"/>
<path d="M119.498 49.0683C119.498 50.3365 119.162 51.2787 118.447 51.8947C117.774 52.5107 116.765 52.8368 115.419 52.8368C114.789 52.8368 114.242 52.7643 113.737 52.6194C113.233 52.4744 112.812 52.2208 112.476 51.9309C112.14 51.6048 111.845 51.2424 111.677 50.7714C111.509 50.3003 111.383 49.7567 111.383 49.1045C111.383 47.8362 111.719 46.8941 112.434 46.2781C113.107 45.6621 114.116 45.3359 115.461 45.3359C116.092 45.3359 116.639 45.4084 117.143 45.5533C117.648 45.6983 118.068 45.952 118.405 46.2418C118.741 46.568 119.035 46.9303 119.204 47.4014C119.414 47.9087 119.498 48.4522 119.498 49.0683ZM113.822 49.0683C113.822 49.5393 113.864 49.9742 113.906 50.3365C113.948 50.6989 114.074 50.9888 114.2 51.2424C114.326 51.4961 114.494 51.6773 114.705 51.786C114.915 51.8947 115.167 51.9671 115.461 51.9671C115.756 51.9671 116.008 51.8947 116.218 51.786C116.428 51.6773 116.597 51.4598 116.723 51.2424C116.849 50.9888 116.933 50.6989 117.017 50.3365C117.059 49.9742 117.101 49.5393 117.101 49.0683C117.101 48.5972 117.059 48.1624 117.017 47.8C116.975 47.4376 116.849 47.1477 116.723 46.8941C116.597 46.6404 116.428 46.4593 116.218 46.3505C116.008 46.2418 115.756 46.1694 115.461 46.1694C115.167 46.1694 114.915 46.2418 114.705 46.3505C114.494 46.4593 114.326 46.6404 114.2 46.8941C114.074 47.1477 113.99 47.4376 113.906 47.8C113.864 48.1624 113.822 48.5972 113.822 49.0683Z" fill="#E49306"/>
<path d="M123.829 51.46C123.661 51.7137 123.493 51.9311 123.282 52.076C123.072 52.221 122.82 52.3659 122.525 52.4384C122.231 52.5471 121.895 52.5833 121.516 52.6196C121.138 52.6558 120.717 52.6558 120.255 52.6558V51.9311H120.297C120.423 51.9311 120.549 51.9311 120.675 51.8948C120.801 51.8586 120.886 51.8224 121.012 51.7499C121.096 51.6774 121.222 51.605 121.306 51.4963C121.39 51.3876 121.516 51.2788 121.6 51.1339L122.988 49.2496C122.778 49.2134 122.567 49.1409 122.357 49.0322C122.147 48.9235 121.937 48.8148 121.769 48.6698C121.6 48.5249 121.474 48.3437 121.348 48.1263C121.222 47.9089 121.18 47.6552 121.18 47.3653C121.18 47.0754 121.222 46.7856 121.348 46.5681C121.474 46.3145 121.684 46.1333 121.937 45.9521C122.231 45.771 122.567 45.6622 122.988 45.5898C123.408 45.5173 123.955 45.4448 124.544 45.4448H129.505V46.1695H129.463C129.001 46.1695 128.706 46.242 128.496 46.387C128.328 46.5319 128.202 46.7131 128.202 47.003V51.0614C128.202 51.1701 128.202 51.3151 128.244 51.3876C128.286 51.4963 128.328 51.605 128.412 51.6774C128.496 51.7499 128.622 51.8224 128.748 51.8586C128.875 51.8949 129.085 51.9311 129.295 51.9311H129.505V52.6558H124.502V51.9311H124.544C124.712 51.9311 124.88 51.9311 125.048 51.8948C125.216 51.8586 125.343 51.8224 125.469 51.7861C125.595 51.7137 125.679 51.6412 125.763 51.4963C125.847 51.3876 125.847 51.2064 125.847 51.0252V49.467H125.006L123.829 51.46ZM124.838 46.2783C124.628 46.2783 124.418 46.3145 124.249 46.3507C124.081 46.4232 123.955 46.4957 123.871 46.6044C123.787 46.7131 123.703 46.8218 123.661 46.9667C123.619 47.1117 123.577 47.2566 123.577 47.4378C123.577 47.619 123.619 47.8002 123.661 47.9451C123.703 48.0901 123.787 48.235 123.871 48.3437C123.955 48.4524 124.081 48.5249 124.249 48.5974C124.418 48.6698 124.586 48.7061 124.838 48.7061H125.847V46.242H124.838V46.2783Z" fill="#E49306"/>
<path d="M135.308 45.5173H139.723V46.242H139.681C139.555 46.242 139.47 46.242 139.344 46.2783C139.218 46.3145 139.092 46.3507 139.008 46.387C138.924 46.4594 138.84 46.5319 138.756 46.6406C138.672 46.7493 138.672 46.8943 138.672 47.1117V51.9673H141.447V47.1117C141.447 46.9305 141.405 46.7493 141.363 46.6406C141.278 46.5319 141.194 46.4232 141.11 46.387C141.026 46.3145 140.9 46.2783 140.774 46.2783C140.648 46.242 140.522 46.242 140.437 46.242H140.395V45.5173H145.021V46.242H144.81C144.684 46.242 144.558 46.242 144.432 46.2783C144.306 46.3145 144.18 46.3507 144.096 46.387C143.969 46.4594 143.885 46.5319 143.801 46.6406C143.717 46.7493 143.675 46.8943 143.675 47.1117V51.2426C143.675 51.3875 143.717 51.5325 143.759 51.6412C143.801 51.7499 143.885 51.8224 144.011 51.8586C144.096 51.9311 144.222 51.9673 144.348 51.9673C144.474 52.0036 144.642 52.0036 144.768 52.0036H145.147V55.5547H144.054L143.969 54.5763C143.927 54.2502 143.885 53.9603 143.801 53.7067C143.717 53.4892 143.591 53.2718 143.465 53.1269C143.339 52.9819 143.171 52.8732 143.002 52.8008C142.834 52.7283 142.666 52.692 142.498 52.692H129.968V51.9673H130.136C130.262 51.9673 130.388 51.9673 130.514 51.9311C130.641 51.9311 130.767 51.8586 130.893 51.8224C131.019 51.7499 131.103 51.6774 131.187 51.5687C131.271 51.46 131.313 51.3151 131.313 51.1339V47.0392C131.313 46.858 131.271 46.6768 131.187 46.5681C131.103 46.4594 131.019 46.3507 130.893 46.3145C130.767 46.242 130.683 46.2058 130.556 46.2058C130.43 46.1695 130.304 46.1695 130.178 46.1695H130.01V45.4448H134.635V46.1695H134.593C134.467 46.1695 134.383 46.1695 134.257 46.2058C134.13 46.242 134.046 46.2783 133.92 46.3145C133.836 46.387 133.752 46.4594 133.668 46.5681C133.584 46.6768 133.584 46.8218 133.584 47.0392V51.8948H136.317V47.003C136.317 46.8218 136.275 46.6768 136.233 46.5681C136.149 46.4594 136.065 46.387 135.981 46.3145C135.896 46.242 135.77 46.2058 135.644 46.2058C135.518 46.2058 135.434 46.1695 135.308 46.1695H135.266V45.5173H135.308Z" fill="#E49306"/>
<path d="M150.276 52.8369C149.603 52.8369 149.014 52.7645 148.51 52.5833C148.005 52.4021 147.585 52.1847 147.248 51.8586C146.912 51.5324 146.66 51.1701 146.492 50.699C146.323 50.2279 146.239 49.7206 146.239 49.1408C146.239 48.5248 146.323 47.945 146.492 47.474C146.66 47.0029 146.912 46.6043 147.248 46.2782C147.585 45.9521 147.963 45.7346 148.468 45.5535C148.93 45.4085 149.477 45.2998 150.108 45.2998C150.654 45.2998 151.159 45.3723 151.621 45.5172C152.084 45.6622 152.462 45.8434 152.757 46.1333C153.051 46.3869 153.303 46.7493 153.471 47.1479C153.64 47.5465 153.724 48.0175 153.724 48.5611V49.2495H148.636C148.636 49.6844 148.72 50.083 148.804 50.4091C148.888 50.7352 149.056 50.9889 149.225 51.2063C149.393 51.4237 149.603 51.5687 149.855 51.6774C150.108 51.7861 150.402 51.8223 150.738 51.8223C150.991 51.8223 151.243 51.7861 151.495 51.7499C151.705 51.6774 151.916 51.6049 152.126 51.5324C152.294 51.4237 152.462 51.315 152.63 51.1701C152.757 51.0251 152.883 50.8802 152.967 50.7352C153.261 50.8802 153.387 51.0976 153.387 51.3875C153.387 51.5687 153.345 51.7499 153.219 51.931C153.093 52.1122 152.925 52.2572 152.672 52.4021C152.42 52.547 152.084 52.6557 151.705 52.7282C151.243 52.8007 150.822 52.8369 150.276 52.8369ZM150.15 46.2057C149.729 46.2057 149.351 46.3869 149.098 46.7492C148.846 47.1116 148.72 47.6552 148.678 48.3799H151.369C151.369 48.0537 151.327 47.7276 151.285 47.474C151.243 47.2203 151.159 46.9667 151.075 46.7855C150.991 46.6043 150.864 46.4594 150.696 46.3507C150.528 46.242 150.36 46.2057 150.15 46.2057Z" fill="#E49306"/>
<path d="M163.605 51.0978C163.605 51.279 163.647 51.4602 163.731 51.5689C163.816 51.6776 163.9 51.7863 164.026 51.8225C164.152 51.895 164.236 51.9313 164.404 51.9313C164.53 51.9675 164.657 51.9675 164.783 51.9675H164.951V52.6922H160.242V51.9675H160.284C160.41 51.9675 160.494 51.9675 160.62 51.9313C160.746 51.895 160.83 51.8588 160.956 51.8225C161.04 51.7501 161.125 51.6776 161.209 51.5689C161.293 51.4602 161.293 51.3152 161.293 51.0978V48.1989L158.391 50.9529V51.0978C158.391 51.279 158.434 51.4602 158.476 51.5689C158.56 51.6776 158.644 51.7863 158.728 51.8225C158.812 51.895 158.938 51.9313 159.064 51.9313C159.19 51.9675 159.317 51.9675 159.401 51.9675H159.443V52.6922H154.733V51.9675H154.902C155.028 51.9675 155.154 51.9675 155.28 51.9313C155.406 51.895 155.532 51.8588 155.616 51.8225C155.743 51.7501 155.827 51.6776 155.911 51.5689C155.995 51.4602 156.037 51.3152 156.037 51.0978V47.0756C156.037 46.8944 155.995 46.7133 155.911 46.6046C155.827 46.4958 155.743 46.3871 155.616 46.3509C155.49 46.2784 155.406 46.2422 155.28 46.2422C155.154 46.206 155.028 46.2059 154.902 46.2059H154.733V45.4812H159.443V46.2059H159.401C159.274 46.2059 159.19 46.206 159.064 46.2422C158.938 46.2784 158.854 46.3147 158.728 46.3509C158.644 46.4234 158.56 46.4958 158.476 46.6046C158.392 46.7133 158.391 46.8582 158.391 47.0756V49.9383L161.293 47.1843V47.0756C161.293 46.8944 161.251 46.7133 161.209 46.6046C161.125 46.4958 161.04 46.3871 160.956 46.3509C160.872 46.2784 160.746 46.2422 160.62 46.2422C160.494 46.206 160.368 46.2059 160.284 46.2059H160.242V45.4812H164.951V46.2059H164.783C164.657 46.2059 164.53 46.206 164.404 46.2422C164.278 46.2784 164.152 46.3147 164.026 46.3509C163.9 46.4234 163.816 46.4958 163.731 46.6046C163.647 46.7133 163.605 46.8582 163.605 47.0756V51.0978ZM159.779 43.8144C160.242 43.8144 160.578 43.7057 160.83 43.4882C161.083 43.2708 161.209 42.9447 161.293 42.4736H163.227C163.185 42.7273 163.143 43.0172 163.017 43.2708C162.933 43.5245 162.764 43.7419 162.512 43.9593C162.26 44.1405 161.923 44.3217 161.503 44.4304C161.082 44.5391 160.494 44.6116 159.821 44.6116C159.148 44.6116 158.56 44.5391 158.139 44.4304C157.719 44.3217 157.382 44.1767 157.13 43.9593C156.878 43.7781 156.71 43.5245 156.626 43.2708C156.541 43.0172 156.457 42.7635 156.415 42.4736H158.349C158.391 42.9447 158.56 43.2708 158.812 43.4882C158.98 43.7057 159.317 43.8144 159.779 43.8144Z" fill="#E49306"/>
<path d="M173.991 52.8369C173.318 52.8369 172.729 52.7645 172.225 52.5833C171.72 52.4021 171.3 52.1847 170.963 51.8586C170.627 51.5324 170.375 51.1701 170.206 50.699C170.038 50.2279 169.954 49.7206 169.954 49.1408C169.954 48.5248 170.038 47.945 170.206 47.474C170.375 47.0029 170.627 46.6043 170.963 46.2782C171.3 45.9521 171.678 45.7346 172.183 45.5535C172.645 45.4085 173.192 45.2998 173.822 45.2998C174.369 45.2998 174.874 45.3723 175.336 45.5172C175.799 45.6622 176.177 45.8434 176.471 46.1333C176.766 46.3869 177.018 46.7493 177.186 47.1479C177.354 47.5465 177.438 48.0175 177.438 48.5611V49.2495H172.351C172.351 49.6844 172.435 50.083 172.519 50.4091C172.603 50.7352 172.771 50.9889 172.939 51.2063C173.108 51.4237 173.318 51.5687 173.57 51.6774C173.822 51.7861 174.117 51.8223 174.453 51.8223C174.705 51.8223 174.958 51.7861 175.21 51.7499C175.42 51.6774 175.63 51.6049 175.841 51.5324C176.009 51.4237 176.177 51.315 176.345 51.1701C176.471 51.0251 176.598 50.8802 176.682 50.7352C176.976 50.8802 177.102 51.0976 177.102 51.3875C177.102 51.5687 177.06 51.7499 176.934 51.931C176.808 52.1122 176.64 52.2572 176.387 52.4021C176.135 52.547 175.799 52.6557 175.42 52.7282C174.958 52.8007 174.495 52.8369 173.991 52.8369ZM173.822 46.2057C173.402 46.2057 173.024 46.3869 172.771 46.7492C172.519 47.1116 172.393 47.6552 172.351 48.3799H175.042C175.042 48.0537 175 47.7276 174.958 47.474C174.916 47.2203 174.832 46.9667 174.747 46.7855C174.663 46.6043 174.537 46.4594 174.369 46.3507C174.243 46.242 174.075 46.2057 173.822 46.2057Z" fill="#E49306"/>
<path d="M187.277 45.5176V46.2423H187.108C186.982 46.2423 186.856 46.2423 186.73 46.2785C186.604 46.3148 186.478 46.351 186.351 46.3872C186.225 46.4597 186.141 46.5322 186.057 46.6409C185.973 46.7496 185.931 46.8945 185.931 47.112V51.2429C185.931 51.3878 185.973 51.5328 186.015 51.6415C186.057 51.7502 186.141 51.8227 186.267 51.8589C186.351 51.9314 186.478 51.9676 186.646 51.9676C186.772 52.0038 186.94 52.0038 187.066 52.0038H187.403V55.555H186.309L186.225 54.5766C186.183 54.2505 186.141 53.9606 186.057 53.7069C185.973 53.4895 185.847 53.2721 185.721 53.1272C185.595 52.9822 185.426 52.8735 185.258 52.801C185.09 52.7286 184.922 52.6923 184.754 52.6923H180.885C180.633 52.6923 180.423 52.7286 180.255 52.801C180.086 52.8735 179.918 52.9822 179.792 53.1272C179.666 53.2721 179.582 53.4533 179.498 53.7069C179.414 53.9243 179.372 54.2142 179.372 54.5766L179.288 55.555H178.194V51.9676H179.288C179.456 51.7502 179.582 51.4965 179.75 51.1704C179.918 50.8443 180.086 50.4457 180.213 49.9746C180.297 49.721 180.381 49.4673 180.465 49.2137C180.549 48.96 180.591 48.6701 180.675 48.4165C180.717 48.1628 180.759 47.9092 180.801 47.6917C180.843 47.4743 180.843 47.2569 180.843 47.0757C180.843 46.8945 180.801 46.7858 180.759 46.6771C180.675 46.5684 180.591 46.496 180.465 46.4235C180.339 46.351 180.213 46.3148 180.044 46.3148C179.876 46.2785 179.708 46.2785 179.54 46.2785H179.498V45.5538H187.277V45.5176ZM183.66 46.2785H181.979C181.894 47.1482 181.768 47.9092 181.642 48.5976C181.474 49.2861 181.348 49.8297 181.18 50.3007C181.096 50.5182 181.054 50.6993 180.969 50.8443C180.927 50.9892 180.843 51.1342 180.801 51.2791C180.759 51.4241 180.675 51.5328 180.633 51.6415C180.591 51.7502 180.507 51.8589 180.465 51.9676H183.66V46.2785Z" fill="#E49306"/>
<path d="M193.249 45.5177V46.2786H193.039C192.87 46.2786 192.702 46.2787 192.534 46.3149C192.366 46.3511 192.24 46.3874 192.114 46.4598C191.987 46.5323 191.903 46.6048 191.819 46.7135C191.735 46.8222 191.735 46.9671 191.735 47.1121V48.634H192.912C193.375 48.634 193.838 48.6702 194.3 48.7065C194.721 48.7427 195.099 48.8514 195.435 48.9964C195.772 49.1413 196.024 49.3225 196.234 49.6124C196.444 49.866 196.529 50.2284 196.529 50.627C196.529 50.9169 196.444 51.2068 196.318 51.4604C196.192 51.7141 195.94 51.9315 195.688 52.1127C195.393 52.2939 195.015 52.4388 194.594 52.5475C194.174 52.6562 193.627 52.6924 193.039 52.6924H188.119V51.9677H188.287C188.666 51.9677 188.96 51.8953 189.128 51.7503C189.296 51.6054 189.423 51.3879 189.423 51.098V47.0758C189.423 46.7497 189.338 46.5323 189.128 46.4236C188.918 46.2787 188.666 46.2062 188.287 46.2062H188.119V45.4814H193.249V45.5177ZM192.618 51.9315C192.87 51.9315 193.081 51.8953 193.291 51.859C193.459 51.8228 193.627 51.7141 193.711 51.6054C193.838 51.4966 193.922 51.3517 193.964 51.1705C194.006 50.9893 194.048 50.7719 194.048 50.5183C194.048 50.0834 193.922 49.7936 193.669 49.6124C193.417 49.4312 193.039 49.3587 192.576 49.3587H191.777V51.8952H192.618V51.9315ZM196.739 52.6924V51.9677H196.949C197.075 51.9677 197.201 51.9677 197.327 51.9315C197.454 51.8953 197.58 51.859 197.664 51.8228C197.79 51.7503 197.874 51.6778 197.958 51.5691C198.042 51.4604 198.084 51.3155 198.084 51.098V47.0758C198.084 46.8947 198.042 46.7135 197.958 46.6048C197.874 46.4961 197.79 46.3874 197.664 46.3511C197.538 46.2786 197.454 46.2424 197.327 46.2424C197.201 46.2062 197.075 46.2062 196.949 46.2062H196.739V45.4814H201.616V46.2062H201.448C201.322 46.2062 201.238 46.2062 201.112 46.2424C200.986 46.2787 200.901 46.3149 200.775 46.3511C200.691 46.4236 200.607 46.4961 200.523 46.6048C200.439 46.7135 200.439 46.8584 200.439 47.0758V51.098C200.439 51.2792 200.481 51.4604 200.523 51.5691C200.607 51.6778 200.691 51.7865 200.775 51.8228C200.859 51.8952 200.986 51.9315 201.112 51.9315C201.238 51.9677 201.364 51.9677 201.448 51.9677H201.616V52.6924H196.739Z" fill="#E49306"/>
<path d="M212.8 52.4026C213.136 52.2939 213.514 52.2939 213.809 52.4026C214.229 52.5476 214.944 52.62 215.995 52.1852C218.013 51.388 219.401 46.7498 217.257 45.7714C215.112 44.8293 213.304 45.9163 213.304 45.9163C213.304 45.9163 211.496 44.8293 209.352 45.7714C207.207 46.7135 208.595 51.388 210.613 52.1852C211.664 52.62 212.379 52.5476 212.8 52.4026Z" fill="#79B15E"/>
<path d="M216.037 52.1839C218.055 51.3867 219.443 46.7485 217.298 45.7701C216.836 45.5889 216.416 45.444 216.037 45.4077C217.004 46.9659 217.172 51.0605 214.187 52.1839C214.061 52.2201 213.935 52.2926 213.809 52.3288C214.145 52.51 214.86 52.6549 216.037 52.1839Z" fill="#689351"/>
<path d="M214.566 52.6914C214.314 52.6914 214.061 52.6552 213.851 52.5827C213.515 52.474 213.136 52.474 212.8 52.5827C212.169 52.7639 211.412 52.6914 210.529 52.3291C209.1 51.7493 208.133 49.6114 208.091 47.9445C208.049 46.785 208.469 45.9153 209.31 45.5529C211.244 44.6832 212.884 45.3717 213.347 45.6254C213.809 45.3717 215.449 44.6832 217.383 45.5529C218.182 45.9153 218.603 46.7487 218.603 47.9445C218.56 49.6114 217.551 51.7493 216.164 52.3291C215.533 52.5827 215.029 52.6914 214.566 52.6914ZM213.305 52.1479C213.515 52.1479 213.767 52.1841 213.977 52.2566C214.482 52.4015 215.155 52.3291 215.912 52.0392C217.047 51.6044 218.056 49.7201 218.098 48.017C218.098 47.4372 218.014 46.3863 217.131 45.9877C215.113 45.0818 213.473 46.0602 213.431 46.0965C213.347 46.1327 213.263 46.1327 213.178 46.0965C213.094 46.0602 211.455 45.0818 209.478 45.9877C208.595 46.3863 208.511 47.4372 208.511 48.017C208.553 49.7201 209.562 51.6044 210.698 52.0392C211.455 52.3291 212.127 52.4378 212.632 52.2566C212.842 52.1841 213.094 52.1479 213.305 52.1479Z" fill="#1A1A1A"/>
<path d="M213.095 45.9161C213.095 45.9161 213.095 45.8799 213.095 45.8074C213.095 45.7349 213.095 45.6262 213.095 45.5175C213.095 45.4088 213.095 45.2639 213.095 45.1189C213.095 44.974 213.137 44.829 213.137 44.6841C213.137 44.6116 213.179 44.5391 213.179 44.4667C213.179 44.3942 213.221 44.3217 213.221 44.2493C213.221 44.1768 213.263 44.1043 213.263 44.0318C213.263 43.9594 213.305 43.9231 213.305 43.8506C213.305 43.7782 213.347 43.7419 213.347 43.7057C213.347 43.6695 213.389 43.6332 213.389 43.597C213.431 43.5245 213.431 43.4883 213.431 43.4883L213.767 43.597C213.767 43.597 213.767 43.6332 213.725 43.7057C213.725 43.7419 213.683 43.7782 213.683 43.8144C213.683 43.8507 213.641 43.8869 213.641 43.9594C213.641 43.9956 213.599 44.0681 213.599 44.1405C213.599 44.213 213.557 44.2493 213.557 44.3217C213.557 44.3942 213.515 44.4667 213.515 44.5391C213.515 44.6116 213.473 44.6841 213.473 44.7565C213.473 44.9015 213.431 45.0464 213.431 45.1914C213.431 45.3363 213.431 45.445 213.431 45.5537C213.431 45.6625 213.431 45.7349 213.431 45.8074C213.431 45.8799 213.431 45.9161 213.431 45.9161H213.095Z" fill="#1A1A1A"/>
<path d="M213.305 44.793C213.305 44.793 212.885 43.3798 210.74 43.561C210.74 43.561 211.119 45.4453 213.305 44.793Z" fill="#79B15E"/>
<path d="M212.463 45.1183C212.127 45.1183 211.833 45.0459 211.538 44.9009C210.74 44.5023 210.529 43.5964 210.529 43.5602C210.529 43.524 210.529 43.4515 210.571 43.4153C210.613 43.379 210.655 43.3428 210.74 43.3428C213.01 43.1616 213.515 44.7198 213.557 44.7198C213.599 44.8285 213.515 44.9009 213.431 44.9372C213.052 45.0821 212.716 45.1183 212.463 45.1183ZM211.034 43.7414C211.118 43.995 211.328 44.3936 211.749 44.611C212.085 44.7922 212.505 44.7922 213.01 44.6835C212.842 44.3574 212.337 43.7051 211.034 43.7414Z" fill="#1A1A1A"/>
<path d="M238.575 52.5113C240.944 52.5113 242.864 50.8565 242.864 48.8152C242.864 46.7739 240.944 45.1191 238.575 45.1191C236.206 45.1191 234.286 46.7739 234.286 48.8152C234.286 50.8565 236.206 52.5113 238.575 52.5113Z" fill="#E08C44"/>
<path d="M239.332 45.228C240.51 45.8803 241.266 47.0036 241.266 48.3081C241.266 50.3373 239.374 52.0042 236.978 52.0042C236.725 52.0042 236.431 51.9679 236.179 51.9317C236.851 52.3303 237.65 52.5477 238.533 52.5477C240.888 52.5477 242.822 50.9171 242.822 48.8516C242.822 47.0398 241.308 45.5179 239.332 45.228Z" fill="#D47C45"/>
<path d="M238.574 52.693C236.093 52.693 234.075 50.9537 234.075 48.8157C234.075 46.6778 236.093 44.9385 238.574 44.9385C241.055 44.9385 243.073 46.6778 243.073 48.8157C243.073 50.9537 241.013 52.693 238.574 52.693ZM238.574 45.3371C236.346 45.3371 234.538 46.8952 234.538 48.8157C234.538 50.7363 236.346 52.2944 238.574 52.2944C240.803 52.2944 242.611 50.7363 242.611 48.8157C242.611 46.8952 240.803 45.3371 238.574 45.3371Z" fill="#1A1A1A"/>
<path d="M238.323 45.1553C238.323 45.1191 238.197 44.3219 238.744 43.5972L239.122 43.8146C238.66 44.4306 238.744 45.1191 238.744 45.1191L238.323 45.1553Z" fill="#1A1A1A"/>
<path d="M238.533 44.5396C238.533 44.5396 238.112 43.1264 235.968 43.3075C235.968 43.3075 236.346 45.1918 238.533 44.5396Z" fill="#79B15E"/>
<path d="M237.692 44.8654C237.356 44.8654 237.061 44.7929 236.767 44.648C235.968 44.2494 235.758 43.3435 235.758 43.3073C235.758 43.271 235.758 43.1986 235.8 43.1623C235.842 43.1261 235.884 43.0899 235.968 43.0899C238.239 42.9087 238.743 44.4668 238.785 44.4668C238.827 44.5755 238.743 44.648 238.659 44.6843C238.281 44.8292 237.986 44.8654 237.692 44.8654ZM236.262 43.4884C236.346 43.7421 236.557 44.1407 236.977 44.3581C237.314 44.5393 237.734 44.5393 238.239 44.4306C238.07 44.1045 237.566 43.4522 236.262 43.4884Z" fill="#1A1A1A"/>
<path d="M252.114 47.7287C253.066 47.7287 253.838 47.0635 253.838 46.243C253.838 45.4225 253.066 44.7573 252.114 44.7573C251.161 44.7573 250.39 45.4225 250.39 46.243C250.39 47.0635 251.161 47.7287 252.114 47.7287Z" fill="#8E44AD"/>
<path d="M251.863 44.793C251.821 44.8654 251.779 44.9741 251.863 45.0829C252.199 45.8076 251.106 46.4236 250.854 47.0396C250.854 47.0758 250.812 47.1121 250.812 47.1845C251.106 47.5107 251.61 47.7281 252.157 47.7281C252.199 47.7281 252.283 47.7281 252.325 47.7281C251.989 47.5831 251.652 47.4382 251.905 47.1121C252.073 46.8947 252.283 46.6772 252.409 46.4598C252.704 45.9888 252.998 45.4814 252.746 44.9379C252.746 44.9379 252.746 44.9379 252.746 44.9017C252.577 44.8654 252.409 44.8292 252.199 44.8292C252.031 44.793 251.947 44.793 251.863 44.793Z" fill="#755079"/>
<path d="M252.113 47.9094C251.062 47.9094 250.179 47.1485 250.179 46.2426C250.179 45.3367 251.062 44.5757 252.113 44.5757C253.164 44.5757 254.047 45.3367 254.047 46.2426C254.047 47.1847 253.206 47.9094 252.113 47.9094ZM252.113 44.9743C251.314 44.9743 250.641 45.5541 250.641 46.2426C250.641 46.931 251.314 47.5108 252.113 47.5108C252.912 47.5108 253.585 46.931 253.585 46.2426C253.627 45.5541 252.954 44.9743 252.113 44.9743Z" fill="#1A1A1A"/>
<path d="M248.751 47.7287C249.703 47.7287 250.475 47.0635 250.475 46.243C250.475 45.4225 249.703 44.7573 248.751 44.7573C247.799 44.7573 247.027 45.4225 247.027 46.243C247.027 47.0635 247.799 47.7287 248.751 47.7287Z" fill="#8E44AD"/>
<path d="M249.844 46.6048C249.802 46.6048 249.718 46.6048 249.676 46.641C249.424 46.0975 248.667 45.8076 249.003 45.1553C249.046 45.0466 249.046 44.9379 249.003 44.8292C248.919 44.8292 248.835 44.793 248.709 44.793C248.499 44.793 248.331 44.8292 248.163 44.8654C247.952 45.3003 247.952 45.7351 248.205 46.1699C248.331 46.3874 248.709 46.6048 248.793 46.8584C248.877 47.1483 248.499 47.402 248.331 47.6194C248.331 47.6556 248.289 47.6556 248.289 47.6919C248.415 47.7281 248.541 47.7281 248.709 47.7281C248.961 47.7281 249.214 47.6556 249.466 47.5832C249.55 47.5107 249.592 47.4382 249.634 47.3295C249.676 47.3657 249.76 47.3657 249.802 47.3657C249.971 47.2208 250.097 47.0758 250.223 46.8947C250.223 46.7135 250.055 46.6048 249.844 46.6048Z" fill="#755079"/>
<path d="M248.751 47.9094C247.699 47.9094 246.816 47.1485 246.816 46.2426C246.816 45.3367 247.699 44.5757 248.751 44.5757C249.802 44.5757 250.685 45.3367 250.685 46.2426C250.643 47.1847 249.802 47.9094 248.751 47.9094ZM248.751 44.9743C247.952 44.9743 247.279 45.5541 247.279 46.2426C247.279 46.931 247.952 47.5108 248.751 47.5108C249.549 47.5108 250.222 46.931 250.222 46.2426C250.222 45.5541 249.549 44.9743 248.751 44.9743Z" fill="#1A1A1A"/>
<path d="M249.256 52.5112C250.185 52.5112 250.938 51.8623 250.938 51.0617C250.938 50.2612 250.185 49.6123 249.256 49.6123C248.327 49.6123 247.574 50.2612 247.574 51.0617C247.574 51.8623 248.327 52.5112 249.256 52.5112Z" fill="#8E44AD"/>
<path d="M250.937 51.0617C250.811 50.7719 250.643 50.5182 250.475 50.2646C250.265 49.9747 249.97 49.7935 249.676 49.6485C249.55 49.6123 249.424 49.6123 249.255 49.6123C248.751 49.6123 248.33 49.7935 248.036 50.0834H248.078C248.793 50.0834 249.382 50.2646 249.802 50.8081C250.138 51.2429 250.349 51.7502 250.181 52.2575C250.601 52.0039 250.937 51.5691 250.937 51.0617Z" fill="#755079"/>
<path d="M249.254 52.6924C248.203 52.6924 247.362 51.9677 247.362 51.0618C247.362 50.1559 248.203 49.4312 249.254 49.4312C250.306 49.4312 251.147 50.1559 251.147 51.0618C251.147 51.9677 250.306 52.6924 249.254 52.6924ZM249.254 49.7935C248.456 49.7935 247.783 50.3733 247.783 51.0618C247.783 51.7503 248.456 52.33 249.254 52.33C250.053 52.33 250.726 51.7503 250.726 51.0618C250.684 50.3733 250.053 49.7935 249.254 49.7935Z" fill="#1A1A1A"/>
<path d="M252.619 50.4095C253.478 50.4095 254.175 49.8092 254.175 49.0688C254.175 48.3283 253.478 47.728 252.619 47.728C251.76 47.728 251.063 48.3283 251.063 49.0688C251.063 49.8092 251.76 50.4095 252.619 50.4095Z" fill="#8E44AD"/>
<path d="M251.82 50.1559C251.778 50.1559 251.736 50.1559 251.736 50.1922C251.989 50.3371 252.283 50.4096 252.619 50.4096C252.872 50.4096 253.124 50.3734 253.334 50.2646C254.091 49.7936 254.259 49.0326 253.923 48.3079C253.628 47.9456 253.166 47.6919 252.619 47.6919C252.577 47.6919 252.535 47.6919 252.535 47.6919C252.535 47.7281 252.577 47.7281 252.619 47.7644C253.544 48.5616 253.124 49.9023 251.82 50.1559Z" fill="#755079"/>
<path d="M252.62 50.5904C251.61 50.5904 250.812 49.902 250.812 49.0323C250.812 48.1626 251.61 47.4741 252.62 47.4741C253.629 47.4741 254.428 48.1626 254.428 49.0323C254.386 49.902 253.587 50.5904 252.62 50.5904ZM252.62 47.8727C251.863 47.8727 251.274 48.38 251.274 49.0323C251.274 49.6845 251.863 50.1918 252.62 50.1918C253.376 50.1918 253.965 49.6845 253.965 49.0323C253.965 48.4163 253.334 47.8727 252.62 47.8727Z" fill="#1A1A1A"/>
<path d="M251.734 52.2938C252.594 52.2938 253.29 51.6935 253.29 50.953C253.29 50.2126 252.594 49.6123 251.734 49.6123C250.875 49.6123 250.179 50.2126 250.179 50.953C250.179 51.6935 250.875 52.2938 251.734 52.2938Z" fill="#8E44AD"/>
<path d="M253.291 50.953C253.291 50.2283 252.618 49.6485 251.819 49.6123C251.819 49.6848 251.861 49.7572 251.945 49.8297C252.534 50.337 252.87 50.953 252.324 51.5691C252.029 51.8952 251.609 52.1488 251.146 52.2213C251.315 52.2575 251.483 52.2938 251.693 52.2938C252.576 52.33 253.291 51.714 253.291 50.953Z" fill="#755079"/>
<path d="M251.737 52.5108C250.728 52.5108 249.929 51.8223 249.929 50.9527C249.929 50.083 250.728 49.3945 251.737 49.3945C252.746 49.3945 253.545 50.083 253.545 50.9527C253.503 51.8223 252.704 52.5108 251.737 52.5108ZM251.737 49.7931C250.98 49.7931 250.391 50.3004 250.391 50.9527C250.391 51.6049 250.98 52.1122 251.737 52.1122C252.494 52.1122 253.082 51.6049 253.082 50.9527C253.082 50.3004 252.452 49.7931 251.737 49.7931Z" fill="#1A1A1A"/>
<path d="M247.951 50.0106C248.81 50.0106 249.507 49.4103 249.507 48.6698C249.507 47.9294 248.81 47.3291 247.951 47.3291C247.092 47.3291 246.396 47.9294 246.396 48.6698C246.396 49.4103 247.092 50.0106 247.951 50.0106Z" fill="#8E44AD"/>
<path d="M249.297 49.3221C248.919 48.8873 248.792 48.3437 248.918 47.8002C248.918 47.7277 248.918 47.6552 248.918 47.5828C248.75 47.4741 248.54 47.3653 248.33 47.3291C248.204 47.3653 248.12 47.4378 248.078 47.5828C247.867 48.38 248.078 49.2134 248.666 49.8294C248.961 49.7569 249.171 49.5395 249.297 49.3221Z" fill="#755079"/>
<path d="M247.953 50.2281C246.943 50.2281 246.145 49.5397 246.145 48.67C246.145 47.8003 246.943 47.1118 247.953 47.1118C248.962 47.1118 249.761 47.8003 249.761 48.67C249.719 49.5397 248.92 50.2281 247.953 50.2281ZM247.953 47.5104C247.196 47.5104 246.607 48.0177 246.607 48.67C246.607 49.3222 247.196 49.8295 247.953 49.8295C248.709 49.8295 249.298 49.3222 249.298 48.67C249.298 48.0177 248.667 47.5104 247.953 47.5104Z" fill="#1A1A1A"/>
<path d="M250.433 46.7863C251.385 46.7863 252.157 46.1211 252.157 45.3006C252.157 44.4801 251.385 43.8149 250.433 43.8149C249.481 43.8149 248.709 44.4801 248.709 45.3006C248.709 46.1211 249.481 46.7863 250.433 46.7863Z" fill="#8E44AD"/>
<path d="M250.432 43.8506C250.306 43.8506 250.18 43.8506 250.054 43.8868C250.054 43.9593 250.138 44.068 250.264 44.1042C251.357 44.5391 251.694 46.1697 250.726 46.7495C251.525 46.6045 252.114 46.0248 252.114 45.3C252.114 45.1913 252.114 45.1189 252.072 45.0101C252.03 44.9377 252.03 44.8652 251.988 44.7927C251.778 44.2492 251.189 43.8506 250.432 43.8506Z" fill="#755079"/>
<path d="M250.432 46.967C249.381 46.967 248.498 46.2061 248.498 45.3002C248.498 44.3943 249.381 43.6333 250.432 43.6333C251.483 43.6333 252.366 44.3943 252.366 45.3002C252.366 46.2061 251.483 46.967 250.432 46.967ZM250.432 44.0319C249.633 44.0319 248.961 44.6117 248.961 45.3002C248.961 45.9886 249.633 46.5684 250.432 46.5684C251.231 46.5684 251.904 45.9886 251.904 45.3002C251.904 44.6117 251.273 44.0319 250.432 44.0319Z" fill="#1A1A1A"/>
<path d="M250.433 49.757C251.269 49.757 251.946 49.1729 251.946 48.4524C251.946 47.732 251.269 47.1479 250.433 47.1479C249.597 47.1479 248.919 47.732 248.919 48.4524C248.919 49.1729 249.597 49.757 250.433 49.757Z" fill="#8E44AD"/>
<path d="M250.433 49.757C251.274 49.757 251.947 49.1772 251.947 48.4524C251.947 48.1988 251.863 47.9814 251.736 47.8002C251.652 47.8002 251.61 47.8002 251.526 47.8002C251.442 47.619 251.358 47.4741 251.232 47.3654C250.98 47.2204 250.727 47.1479 250.391 47.1479C250.307 47.1479 250.181 47.1479 250.097 47.1842C250.012 47.3654 250.055 47.6552 250.349 47.7277C250.811 47.8727 250.769 48.4524 250.643 48.7423C250.475 49.0684 250.139 49.2859 249.718 49.3221C249.592 49.3221 249.466 49.3946 249.424 49.467C249.718 49.6482 250.055 49.757 250.433 49.757Z" fill="#755079"/>
<path d="M250.434 49.975C249.467 49.975 248.668 49.2865 248.668 48.4531C248.668 47.6196 249.467 46.9312 250.434 46.9312C251.401 46.9312 252.2 47.6196 252.2 48.4531C252.2 49.2865 251.401 49.975 250.434 49.975ZM250.434 47.3298C249.719 47.3298 249.13 47.8371 249.13 48.4531C249.13 49.0691 249.719 49.5764 250.434 49.5764C251.149 49.5764 251.737 49.0691 251.737 48.4531C251.737 47.8371 251.149 47.3298 250.434 47.3298Z" fill="#1A1A1A"/>
<path d="M250.643 43.8507H250.18C250.18 43.8507 250.222 42.9085 249.844 42.2925L250.222 42.1113C250.727 42.7998 250.685 43.8144 250.643 43.8507Z" fill="#1A1A1A"/>
<path d="M250.432 43.2346C250.432 43.2346 250.852 41.8938 252.87 42.0388C252.912 42.0388 252.534 43.8869 250.432 43.2346Z" fill="#79B15E"/>
<path d="M251.274 43.5602C250.98 43.5602 250.685 43.524 250.349 43.4153C250.223 43.3791 250.181 43.2703 250.223 43.1979C250.223 43.1979 250.727 41.7122 252.914 41.8571C252.956 41.8571 253.04 41.8934 253.082 41.9296C253.124 41.9658 253.124 42.0383 253.124 42.0746C253.124 42.1108 252.956 42.9442 252.157 43.3428C251.905 43.4878 251.61 43.5602 251.274 43.5602ZM250.727 43.1254C251.19 43.2341 251.61 43.1979 251.905 43.0529C252.283 42.8355 252.493 42.4732 252.577 42.2557C251.4 42.2195 250.896 42.7993 250.727 43.1254Z" fill="#1A1A1A"/>
<path d="M220.958 50.917C220.958 50.917 224.237 50.7359 226.129 48.9603C228.021 47.1847 228.652 45.1193 228.442 44.4308C228.232 43.7423 227.895 43.3799 227.895 43.3799L228.778 43.0176C228.778 43.0176 228.904 44.0322 229.367 44.4308C229.829 44.8294 232.058 46.2426 228.946 49.7937C225.835 53.3449 223.228 52.5839 222.261 52.1853C221.294 51.7867 220.453 51.5693 220.537 51.3157C220.663 51.0258 220.747 50.917 220.958 50.917Z" fill="#E0B147"/>
<path d="M222.808 51.4244C227.601 51.2069 229.703 47.9819 230.544 46.1339C230.376 45.1555 229.619 44.6482 229.367 44.4308C228.904 44.0322 228.778 43.0176 228.778 43.0176L227.895 43.3799C227.895 43.3799 228.232 43.7423 228.442 44.4308C228.652 45.1193 227.979 47.1847 226.129 48.9603C224.237 50.7359 220.958 50.917 220.958 50.917C220.747 50.9533 220.663 51.062 220.579 51.3157C220.579 51.3157 220.579 51.3156 220.579 51.3519C221.168 51.4244 221.925 51.4606 222.808 51.4244Z" fill="#E8DD4B"/>
<path d="M224.069 52.692C223.439 52.692 222.808 52.5833 222.219 52.3296C221.967 52.2209 221.715 52.1485 221.504 52.0398C220.748 51.7499 220.285 51.5687 220.411 51.2426C220.495 50.9889 220.579 50.7352 220.958 50.699C221 50.699 224.196 50.4816 226.004 48.8147C227.854 47.1116 228.484 45.0824 228.274 44.4664C228.064 43.8141 227.77 43.488 227.77 43.488C227.727 43.4518 227.727 43.3793 227.727 43.3431C227.727 43.3068 227.77 43.2344 227.854 43.1981L228.737 42.8358C228.821 42.7995 228.863 42.7995 228.947 42.8358C229.031 42.872 229.031 42.9083 229.073 42.9807C229.115 43.2344 229.241 43.9953 229.578 44.249C229.62 44.2852 229.62 44.2852 229.662 44.3215C230.292 44.8288 232.226 46.3869 229.199 49.8656C227.517 51.7499 225.793 52.692 224.069 52.692ZM220.79 51.315C220.874 51.3875 221.294 51.5687 221.631 51.6774C221.841 51.7499 222.093 51.8586 222.387 51.9673C224.49 52.8369 226.718 52.0397 228.779 49.6482C231.554 46.4594 229.914 45.1187 229.325 44.6113C229.283 44.5751 229.241 44.5389 229.199 44.5389C228.863 44.249 228.695 43.633 228.61 43.3068L228.232 43.4518C228.358 43.633 228.526 43.9591 228.652 44.3939C228.905 45.1911 228.19 47.2928 226.256 49.1046C224.364 50.8802 221.126 51.0976 220.916 51.1338C220.916 51.0976 220.874 51.0976 220.79 51.315Z" fill="#1A1A1A"/>
</svg>
