<svg width="400" height="229" viewBox="0 0 400 229" fill="none" xmlns="http://www.w3.org/2000/svg">
<g clip-path="url(#clip0_1112_2350)">
<path d="M330.574 81.0787C314.081 72.0488 296.9 68.4347 278.15 70.7452C255.053 73.5962 236.844 76.9559 214.712 68.3499C196.131 61.1218 179.162 50.3855 161.44 41.3873C125.19 22.9989 89.2047 17.3075 62.0278 53.5756C47.5702 72.8755 36.6105 95.037 29.0107 118.417C16.7578 156.137 6.68836 197.906 12.2106 237.301C19.2062 287.241 62.0278 310.695 113.276 292.593C133.987 285.28 153.999 274.576 176.098 271.513C222.333 265.09 260.459 307.526 315.915 297.225C411.5 279.462 404.441 121.512 330.585 81.0787H330.574Z" fill="#F3F3F5"/>
<path d="M330.574 81.0787C314.081 72.0488 296.9 68.4347 278.15 70.7452C255.053 73.5962 236.844 76.9559 214.712 68.3499C196.131 61.1218 179.162 50.3855 161.44 41.3873C125.19 22.9989 89.2047 17.3075 62.0278 53.5756C47.5702 72.8755 36.6105 95.037 29.0107 118.417C16.7578 156.137 6.68836 197.906 12.2106 237.301C19.2062 287.241 62.0278 310.695 113.276 292.593C133.987 285.28 153.999 274.576 176.098 271.513C222.333 265.09 260.459 307.526 315.915 297.225C411.5 279.462 404.441 121.512 330.585 81.0787H330.574Z" fill="white"/>
<path d="M345.052 40.3912C338.321 36.7241 335.258 39.7764 332.82 36.7241C330.372 33.6611 339.551 25.7122 321.193 17.7633C321.193 17.7633 319.974 0.636164 294.885 0.0214509C269.796 -0.593262 276.527 17.1486 269.796 21.4304C263.066 25.7122 261.232 18.9822 254.501 23.264C247.771 27.5458 250.834 36.1094 245.322 37.3388C239.811 38.5576 232.476 31.8276 225.745 36.12C219.015 40.4123 219.015 44.0688 215.951 44.0688C212.888 44.0688 206.772 41.6206 203.105 44.0688C199.437 46.5171 195.155 49.5801 195.155 49.5801H349.949C349.949 49.5801 351.783 44.0688 345.052 40.4017V40.3912Z" fill="#F3F3F5"/>
<path d="M345.052 40.3912C338.321 36.7241 335.258 39.7764 332.82 36.7241C330.372 33.6611 339.551 25.7122 321.193 17.7633C321.193 17.7633 319.974 0.636164 294.885 0.0214509C269.796 -0.593262 276.527 17.1486 269.796 21.4304C263.066 25.7122 261.232 18.9822 254.501 23.264C247.771 27.5458 250.834 36.1094 245.322 37.3388C239.811 38.5576 232.476 31.8276 225.745 36.12C219.015 40.4123 219.015 44.0688 215.951 44.0688C212.888 44.0688 206.772 41.6206 203.105 44.0688C199.437 46.5171 195.155 49.5801 195.155 49.5801H349.949C349.949 49.5801 351.783 44.0688 345.052 40.4017V40.3912Z" fill="white"/>
<path d="M182.273 190.373C177.546 187.797 175.394 189.938 173.677 187.797C171.96 185.646 178.404 180.06 165.516 174.475C165.516 174.475 164.657 162.446 147.041 162.011C129.425 161.577 134.152 174.04 129.425 177.05C124.697 180.06 123.404 175.333 118.677 178.343C113.949 181.353 116.101 187.363 112.232 188.221C108.364 189.08 103.212 184.353 98.485 187.363C93.7576 190.373 93.7576 192.948 91.606 192.948C89.4543 192.948 85.1615 191.231 82.5859 192.948C80.0102 194.665 77 196.817 77 196.817H185.718C185.718 196.817 187.011 192.948 182.284 190.373H182.273Z" fill="#F3F3F5"/>
<path d="M212.21 356.47V142.2H223.52V356.47" fill="#141414"/>
<path d="M212.21 356.47V142.2H223.52V356.47" stroke="#141414" stroke-linecap="round" stroke-linejoin="round"/>
<path d="M206.561 356.47V142.2H217.87V356.47" fill="#F3F3F5"/>
<path d="M206.561 356.47V142.2H217.87V356.47" stroke="#141414" stroke-linecap="round" stroke-linejoin="round"/>
<g style="mix-blend-mode:multiply" opacity="0.3">
<path d="M217.87 142.2H206.561V167.637H217.87V142.2Z" fill="#141414"/>
</g>
<path d="M254.83 58.536H171.021L207.557 148.242H291.366V95.0584C291.366 74.8895 275.011 58.5254 254.83 58.5254V58.536Z" fill="#F3F3F5" stroke="#141414" stroke-linecap="round" stroke-linejoin="round"/>
<g style="mix-blend-mode:multiply" opacity="0.3">
<path d="M201.154 132.545L207.546 148.252H291.355V95.0689C291.355 94.2635 291.323 93.458 291.27 92.6631H201.154V132.545Z" fill="#D2DAE1"/>
</g>
<path d="M254.205 92.6631H245.396" stroke="#141414" stroke-linecap="round" stroke-linejoin="round"/>
<path d="M291.27 92.6631H264.581" stroke="#141414" stroke-linecap="round" stroke-linejoin="round"/>
<path d="M171.021 58.5361C191.181 58.5361 207.557 74.9002 207.557 95.0692V148.252H134.495V95.0692C134.495 74.9108 150.861 58.5361 171.031 58.5361H171.021Z" fill="#141414" stroke="#141414" stroke-linecap="round" stroke-linejoin="round"/>
<path d="M207.546 142.2H144.586V148.252H207.546V142.2Z" fill="#F3F3F5" stroke="#141414" stroke-linecap="round" stroke-linejoin="round"/>
<path d="M207.546 142.2H77.248V148.252H207.546V142.2Z" fill="#F3F3F5" stroke="#141414" stroke-linecap="round" stroke-linejoin="round"/>
<path opacity="0.3" d="M207.546 142.2H144.586V148.252H207.546V142.2Z" fill="#D2DAE1"/>
<path d="M260.267 36.915H234.118V55.2822H260.267V36.915Z" fill="#56B258" stroke="#141414" stroke-linecap="round" stroke-linejoin="round"/>
<path d="M236.238 36.915H230.589V94.147H236.238V36.915Z" fill="white" stroke="#141414" stroke-linecap="round" stroke-linejoin="round"/>
<path d="M233.408 101.926C236.921 101.926 239.768 99.0791 239.768 95.5671C239.768 92.0551 236.921 89.208 233.408 89.208C229.896 89.208 227.049 92.0551 227.049 95.5671C227.049 99.0791 229.896 101.926 233.408 101.926Z" fill="#141414" stroke="#141414" stroke-linecap="round" stroke-linejoin="round"/>
<path d="M140.146 73.2363C154.9 80.7295 180.55 92.7376 204.208 98.7787" stroke="white" stroke-linecap="round" stroke-linejoin="round"/>
<path d="M127.766 66.665C127.766 66.665 132.493 69.3359 140.146 73.2255" stroke="#141414" stroke-linecap="round" stroke-linejoin="round"/>
<path d="M122.455 66.3151L133.065 41.1225L56.124 22.3525L122.455 66.3151Z" fill="white" stroke="#141414" stroke-width="1.26" stroke-linecap="round" stroke-linejoin="round"/>
<path d="M127.628 44.1643L122.455 66.3151L56.124 22.3525L127.628 44.1643Z" fill="#F3F3F5" stroke="#141414" stroke-width="1.26" stroke-linecap="round" stroke-linejoin="round"/>
<path d="M127.628 44.1643L115.555 54.5084L56.124 22.3525L127.628 44.1643Z" fill="white" stroke="#141414" stroke-width="1.26" stroke-linecap="round" stroke-linejoin="round"/>
<path d="M133.065 41.1225L143.813 36.7453L56.124 22.3525L133.065 41.1225Z" fill="white" stroke="#141414" stroke-width="1.26" stroke-linecap="round" stroke-linejoin="round"/>
<path d="M107.51 62.3936L110.001 63.9197" stroke="#141414" stroke-linecap="round" stroke-linejoin="round"/>
<path d="M93.9219 54.0635L102.264 59.1826" stroke="#141414" stroke-linecap="round" stroke-linejoin="round"/>
<path d="M84.5518 114.57V87.2256L162.754 99.806L84.5518 114.57Z" fill="white" stroke="#141414" stroke-width="1.26" stroke-linecap="round" stroke-linejoin="round"/>
<path d="M88.3781 92.1543L84.5518 114.57L162.754 99.8064L88.3781 92.1543Z" fill="#F3F3F5" stroke="#141414" stroke-width="1.26" stroke-linecap="round" stroke-linejoin="round"/>
<path d="M88.3779 92.1543L95.4901 106.367L162.754 99.8064L88.3779 92.1543Z" fill="white" stroke="#141414" stroke-width="1.26" stroke-linecap="round" stroke-linejoin="round"/>
<path d="M84.5516 87.2257L76.3477 79.0225L162.754 99.8061L84.5516 87.2257Z" fill="white" stroke="#141414" stroke-width="1.26" stroke-linecap="round" stroke-linejoin="round"/>
<path d="M112.556 114.061L119.339 112.684" stroke="#141414" stroke-linecap="round" stroke-linejoin="round"/>
<path d="M88.7275 118.904L105.782 115.438" stroke="#141414" stroke-linecap="round" stroke-linejoin="round"/>
<path d="M75.1284 112.874C75.1284 112.874 13.6519 123.473 1.99257 178.585C-9.66677 233.697 51.8097 236.877 62.4091 210.38C73.0085 183.884 26.3712 173.285 15.7718 198.722C5.17239 224.158 36.9706 267.612 80.4281 269.732C116.54 271.491 217.786 229.341 280.788 218.689C280.788 218.689 327.394 205.781 399.47 208.61" stroke="#141414" stroke-linecap="round" stroke-linejoin="round"/>
</g>
<defs>
<clipPath id="clip0_1112_2350">
<rect width="400" height="357" fill="white"/>
</clipPath>
</defs>
</svg>
